<svg width="921" height="432" viewBox="0 0 921 432" fill="none" xmlns="http://www.w3.org/2000/svg">
<g clip-path="url(#clip0)">
<ellipse cx="460.5" cy="334.5" rx="460.5" ry="334.5" fill="#F8F8F8"/>
<ellipse cx="460.5" cy="321" rx="413.5" ry="283" fill="#CFF1F8"/>
</g>
<path d="M148.946 425.794L147.513 425.461C163.49 351.981 203.642 285.255 260.573 237.574C303.614 201.581 354.806 177.509 409.326 167.625C463.847 157.74 519.903 162.367 572.217 181.071C624.531 199.775 671.382 231.941 708.357 274.538C745.332 317.136 771.216 368.765 783.571 424.564L782.139 424.901C748.318 271.329 618.169 164.072 465.64 164.072C315.11 164.072 181.921 274.142 148.946 425.794Z" fill="#3F3D56"/>
<path d="M703.681 246.261C725.711 246.261 743.569 227.792 743.569 205.01C743.569 182.228 725.711 163.759 703.681 163.759C681.651 163.759 663.792 182.228 663.792 205.01C663.792 227.792 681.651 246.261 703.681 246.261Z" fill="#FF6584"/>
<path d="M688.528 369.932H687.059V429.93H688.528V369.932Z" fill="#3F3D56"/>
<path d="M702.083 377.578C702.176 398.558 687.903 415.634 687.903 415.634C687.903 415.634 673.479 398.695 673.385 377.715C673.292 356.735 687.565 339.659 687.565 339.659C687.565 339.659 701.989 356.598 702.083 377.578Z" fill="#38D39F"/>
<path opacity="0.1" d="M702.083 377.578C702.176 398.558 687.903 415.634 687.903 415.634C687.903 415.634 673.479 398.695 673.385 377.715C673.292 356.735 687.565 339.659 687.565 339.659C687.565 339.659 701.989 356.598 702.083 377.578Z" fill="black"/>
<path opacity="0.4" d="M410.945 250.644C423.618 250.644 433.893 240.019 433.893 226.912C433.893 213.806 423.618 203.18 410.945 203.18C398.271 203.18 387.997 213.806 387.997 226.912C387.997 240.019 398.271 250.644 410.945 250.644Z" fill="#38D39F"/>
<path opacity="0.4" d="M368.474 254.895C377.364 254.895 384.571 247.441 384.571 238.247C384.571 229.053 377.364 221.599 368.474 221.599C359.583 221.599 352.376 229.053 352.376 238.247C352.376 247.441 359.583 254.895 368.474 254.895Z" fill="#38D39F"/>
<path opacity="0.4" d="M195.892 302.741C204.783 302.741 211.99 295.288 211.99 286.094C211.99 276.899 204.783 269.446 195.892 269.446C187.002 269.446 179.794 276.899 179.794 286.094C179.794 295.288 187.002 302.741 195.892 302.741Z" fill="#38D39F"/>
<path opacity="0.4" d="M671.866 248.692C684.54 248.692 694.814 238.067 694.814 224.96C694.814 211.853 684.54 201.228 671.866 201.228C659.192 201.228 648.918 211.853 648.918 224.96C648.918 238.067 659.192 248.692 671.866 248.692Z" fill="#38D39F"/>
<path d="M84.5889 423.259C85.8329 428.014 90.0939 430.96 90.0939 430.96C90.0939 430.96 92.338 426.195 91.094 421.439C89.85 416.683 85.5889 413.738 85.5889 413.738C85.5889 413.738 83.3449 418.503 84.5889 423.259Z" fill="#3F3D56"/>
<path d="M86.4169 422.236C89.8305 425.673 90.2474 430.956 90.2474 430.956C90.2474 430.956 85.1299 430.667 81.7163 427.23C78.3027 423.794 77.8857 418.511 77.8857 418.511C77.8857 418.511 83.0033 418.8 86.4169 422.236Z" fill="#38D39F"/>
<path d="M534.035 423.259C535.279 428.014 539.54 430.96 539.54 430.96C539.54 430.96 541.784 426.195 540.54 421.439C539.296 416.683 535.035 413.738 535.035 413.738C535.035 413.738 532.791 418.503 534.035 423.259Z" fill="#3F3D56"/>
<path d="M535.863 422.236C539.276 425.673 539.693 430.956 539.693 430.956C539.693 430.956 534.576 430.667 531.162 427.23C527.749 423.794 527.332 418.511 527.332 418.511C527.332 418.511 532.449 418.8 535.863 422.236Z" fill="#38D39F"/>
<path d="M93.0391 387.511L90.0009 382.274L118.359 357.137H191.279V364.469L164.947 393.795L134.563 400.079L93.0391 387.511Z" fill="#3F3D56"/>
<path d="M203.831 371.888V355.501H194.284V360.669L191.279 357.137L166.972 382.274L162.921 386.463L157.857 407.411L166.972 430.453H213.56V383.321L203.831 371.888Z" fill="#CCCCCC"/>
<path d="M166.972 382.274H90.0009V430.453H166.972V382.274Z" fill="#F2F2F2"/>
<path d="M156.338 397.461H140.133V412.124H156.338V397.461Z" fill="#3F3D56"/>
<path d="M133.55 396.937H119.371V430.453H133.55V396.937Z" fill="#CCCCCC"/>
<path d="M103.167 402.174V396.937H97.0907V402.174H102.66H103.167Z" fill="#3F3D56"/>
<path d="M102.66 406.363H97.0907V411.6H103.167V406.363H102.66Z" fill="#3F3D56"/>
<path d="M113.295 396.937H107.218V402.174H113.295V396.937Z" fill="#3F3D56"/>
<path d="M113.295 406.363H107.218V411.6H113.295V406.363Z" fill="#3F3D56"/>
<path d="M188.747 402.698V397.46H182.67V402.698H188.24H188.747Z" fill="#3F3D56"/>
<path d="M188.24 406.887H182.67V412.124H188.747V406.887H188.24Z" fill="#3F3D56"/>
<path d="M198.875 397.461H192.798V402.698H198.875V397.461Z" fill="#3F3D56"/>
<path d="M198.875 406.887H192.798V412.124H198.875V406.887Z" fill="#3F3D56"/>
<path d="M386.06 387.511L383.022 382.274L411.38 357.137H484.3V364.469L457.968 393.795L427.584 400.079L386.06 387.511Z" fill="#3F3D56"/>
<path d="M496.852 371.888V355.501H487.305V360.669L484.3 357.137L459.993 382.274L455.942 386.463L450.878 407.411L459.993 430.453H506.581V383.321L496.852 371.888Z" fill="#CCCCCC"/>
<path d="M459.993 382.274H383.022V430.453H459.993V382.274Z" fill="#F2F2F2"/>
<path d="M449.359 397.461H433.155V412.124H449.359V397.461Z" fill="#3F3D56"/>
<path d="M426.572 396.937H412.393V430.453H426.572V396.937Z" fill="#CCCCCC"/>
<path d="M396.188 402.174V396.937H390.112V402.174H395.681H396.188Z" fill="#3F3D56"/>
<path d="M395.681 406.363H390.112V411.6H396.188V406.363H395.681Z" fill="#3F3D56"/>
<path d="M406.316 396.937H400.239V402.174H406.316V396.937Z" fill="#3F3D56"/>
<path d="M406.316 406.363H400.239V411.6H406.316V406.363Z" fill="#3F3D56"/>
<path d="M481.768 402.698V397.46H475.691V402.698H481.261H481.768Z" fill="#3F3D56"/>
<path d="M481.261 406.887H475.691V412.124H481.768V406.887H481.261Z" fill="#3F3D56"/>
<path d="M491.896 397.461H485.819V402.698H491.896V397.461Z" fill="#3F3D56"/>
<path d="M491.896 406.887H485.819V412.124H491.896V406.887Z" fill="#3F3D56"/>
<path d="M249.007 299.532L243.943 295.342L272.301 269.158H344.208V292.2L297.621 324.669L249.007 299.532Z" fill="#3F3D56"/>
<path d="M357.318 283.846V269.681H347.771V273.15L344.208 269.158L320.914 295.342L311.8 301.627L297.666 408.411L318.98 430.453H368.515V296.389L357.318 283.846Z" fill="#CCCCCC"/>
<path d="M320.914 295.342H243.943V430.453H320.914V295.342Z" fill="#F2F2F2"/>
<path d="M287.999 397.461H273.82V430.453H287.999V397.461Z" fill="#CCCCCC"/>
<path d="M258.628 406.887V401.65H252.552V406.887H258.122H258.628Z" fill="#3F3D56"/>
<path d="M258.122 411.076H252.552V416.314H258.628V411.076H258.122Z" fill="#3F3D56"/>
<path d="M268.756 401.65H262.68V406.887H268.756V401.65Z" fill="#3F3D56"/>
<path d="M268.756 411.077H262.68V416.313H268.756V411.077Z" fill="#3F3D56"/>
<path d="M300.152 406.887V401.65H294.076V406.887H299.646H300.152Z" fill="#3F3D56"/>
<path d="M299.646 411.076H294.076V416.314H300.152V411.076H299.646Z" fill="#3F3D56"/>
<path d="M310.28 401.65H304.203V406.887H310.28V401.65Z" fill="#3F3D56"/>
<path d="M310.28 411.077H304.203V416.313H310.28V411.077Z" fill="#3F3D56"/>
<path d="M342.689 302.15V296.913H336.612V302.15H342.183H342.689Z" fill="#3F3D56"/>
<path d="M342.183 306.34H336.612V311.577H342.689V306.34H342.183Z" fill="#3F3D56"/>
<path d="M352.817 296.913H346.74V302.15H352.817V296.913Z" fill="#3F3D56"/>
<path d="M352.817 306.34H346.74V311.577H352.817V306.34Z" fill="#3F3D56"/>
<path d="M342.689 331.477V326.24H336.612V331.477H342.183H342.689Z" fill="#3F3D56"/>
<path d="M342.183 335.666H336.612V340.903H342.689V335.666H342.183Z" fill="#3F3D56"/>
<path d="M352.817 326.24H346.74V331.477H352.817V326.24Z" fill="#3F3D56"/>
<path d="M352.817 335.666H346.74V340.903H352.817V335.666Z" fill="#3F3D56"/>
<path d="M342.689 360.803V355.566H336.612V360.803H342.183H342.689Z" fill="#3F3D56"/>
<path d="M342.183 364.992H336.612V370.229H342.689V364.992H342.183Z" fill="#3F3D56"/>
<path d="M352.817 355.566H346.74V360.803H352.817V355.566Z" fill="#3F3D56"/>
<path d="M352.817 364.992H346.74V370.229H352.817V364.992Z" fill="#3F3D56"/>
<path d="M342.689 390.129V384.892H336.612V390.129H342.183H342.689Z" fill="#3F3D56"/>
<path d="M342.183 394.319H336.612V399.555H342.689V394.319H342.183Z" fill="#3F3D56"/>
<path d="M352.817 384.892H346.74V390.129H352.817V384.892Z" fill="#3F3D56"/>
<path d="M352.817 394.319H346.74V399.556H352.817V394.319Z" fill="#3F3D56"/>
<path d="M311.293 302.15H252.552V314.719H311.293V302.15Z" fill="#3F3D56"/>
<path d="M311.293 327.287H252.552V339.856H311.293V327.287Z" fill="#3F3D56"/>
<path d="M311.293 352.424H252.552V364.992H311.293V352.424Z" fill="#3F3D56"/>
<path d="M311.293 377.561H252.552V390.129H311.293V377.561Z" fill="#3F3D56"/>
<path d="M544.966 299.532L539.902 295.342L568.26 269.158H640.167V292.2L593.579 324.669L544.966 299.532Z" fill="#3F3D56"/>
<path d="M653.277 283.846V269.681H643.73V273.15L640.167 269.158L616.873 295.342L607.758 301.627L593.625 408.411L614.939 430.453H664.474V296.389L653.277 283.846Z" fill="#CCCCCC"/>
<path d="M616.873 295.342H539.902V430.453H616.873V295.342Z" fill="#F2F2F2"/>
<path d="M583.958 397.461H569.779V430.453H583.958V397.461Z" fill="#CCCCCC"/>
<path d="M554.587 406.887V401.65H548.511V406.887H554.081H554.587Z" fill="#3F3D56"/>
<path d="M554.081 411.076H548.511V416.314H554.587V411.076H554.081Z" fill="#3F3D56"/>
<path d="M564.715 401.65H558.638V406.887H564.715V401.65Z" fill="#3F3D56"/>
<path d="M564.715 411.077H558.638V416.313H564.715V411.077Z" fill="#3F3D56"/>
<path d="M596.111 406.887V401.65H590.034V406.887H595.605H596.111Z" fill="#3F3D56"/>
<path d="M595.605 411.076H590.034V416.314H596.111V411.076H595.605Z" fill="#3F3D56"/>
<path d="M606.239 401.65H600.162V406.887H606.239V401.65Z" fill="#3F3D56"/>
<path d="M606.239 411.077H600.162V416.313H606.239V411.077Z" fill="#3F3D56"/>
<path d="M638.647 302.15V296.913H632.571V302.15H638.141H638.647Z" fill="#3F3D56"/>
<path d="M638.141 306.34H632.571V311.577H638.647V306.34H638.141Z" fill="#3F3D56"/>
<path d="M648.776 296.913H642.699V302.15H648.776V296.913Z" fill="#3F3D56"/>
<path d="M648.776 306.34H642.699V311.577H648.776V306.34Z" fill="#3F3D56"/>
<path d="M638.647 331.477V326.24H632.571V331.477H638.141H638.647Z" fill="#3F3D56"/>
<path d="M638.141 335.666H632.571V340.903H638.647V335.666H638.141Z" fill="#3F3D56"/>
<path d="M648.776 326.24H642.699V331.477H648.776V326.24Z" fill="#3F3D56"/>
<path d="M648.776 335.666H642.699V340.903H648.776V335.666Z" fill="#3F3D56"/>
<path d="M638.647 360.803V355.566H632.571V360.803H638.141H638.647Z" fill="#3F3D56"/>
<path d="M638.141 364.992H632.571V370.229H638.647V364.992H638.141Z" fill="#3F3D56"/>
<path d="M648.776 355.566H642.699V360.803H648.776V355.566Z" fill="#3F3D56"/>
<path d="M648.776 364.992H642.699V370.229H648.776V364.992Z" fill="#3F3D56"/>
<path d="M638.647 390.129V384.892H632.571V390.129H638.141H638.647Z" fill="#3F3D56"/>
<path d="M638.141 394.319H632.571V399.555H638.647V394.319H638.141Z" fill="#3F3D56"/>
<path d="M648.776 384.892H642.699V390.129H648.776V384.892Z" fill="#3F3D56"/>
<path d="M648.776 394.319H642.699V399.556H648.776V394.319Z" fill="#3F3D56"/>
<path d="M607.252 302.15H548.51V314.719H607.252V302.15Z" fill="#3F3D56"/>
<path d="M607.252 327.287H548.51V339.856H607.252V327.287Z" fill="#3F3D56"/>
<path d="M607.252 352.424H548.51V364.992H607.252V352.424Z" fill="#3F3D56"/>
<path d="M607.252 377.561H548.51V390.129H607.252V377.561Z" fill="#3F3D56"/>
<path d="M707.266 299.532L702.202 295.342L730.56 269.158H802.467V292.2L755.879 324.669L707.266 299.532Z" fill="#3F3D56"/>
<path d="M815.577 283.846V269.681H806.03V273.15L802.467 269.158L779.173 295.342L770.058 301.627L755.925 408.411L777.239 430.453H826.774V296.389L815.577 283.846Z" fill="#CCCCCC"/>
<path d="M779.173 295.342H702.202V430.453H779.173V295.342Z" fill="#F2F2F2"/>
<path d="M746.257 397.461H732.079V430.453H746.257V397.461Z" fill="#CCCCCC"/>
<path d="M716.887 406.887V401.65H710.811V406.887H716.381H716.887Z" fill="#3F3D56"/>
<path d="M716.381 411.076H710.811V416.314H716.887V411.076H716.381Z" fill="#3F3D56"/>
<path d="M727.015 401.65H720.938V406.887H727.015V401.65Z" fill="#3F3D56"/>
<path d="M727.015 411.077H720.938V416.313H727.015V411.077Z" fill="#3F3D56"/>
<path d="M758.411 406.887V401.65H752.334V406.887H757.905H758.411Z" fill="#3F3D56"/>
<path d="M757.905 411.076H752.334V416.314H758.411V411.076H757.905Z" fill="#3F3D56"/>
<path d="M768.538 401.65H762.462V406.887H768.538V401.65Z" fill="#3F3D56"/>
<path d="M768.538 411.077H762.462V416.313H768.538V411.077Z" fill="#3F3D56"/>
<path d="M800.947 302.15V296.913H794.871V302.15H800.441H800.947Z" fill="#3F3D56"/>
<path d="M800.441 306.34H794.871V311.577H800.947V306.34H800.441Z" fill="#3F3D56"/>
<path d="M811.076 296.913H804.999V302.15H811.076V296.913Z" fill="#3F3D56"/>
<path d="M811.076 306.34H804.999V311.577H811.076V306.34Z" fill="#3F3D56"/>
<path d="M800.947 331.477V326.24H794.871V331.477H800.441H800.947Z" fill="#3F3D56"/>
<path d="M800.441 335.666H794.871V340.903H800.947V335.666H800.441Z" fill="#3F3D56"/>
<path d="M811.076 326.24H804.999V331.477H811.076V326.24Z" fill="#3F3D56"/>
<path d="M811.076 335.666H804.999V340.903H811.076V335.666Z" fill="#3F3D56"/>
<path d="M800.947 360.803V355.566H794.871V360.803H800.441H800.947Z" fill="#3F3D56"/>
<path d="M800.441 364.992H794.871V370.229H800.947V364.992H800.441Z" fill="#3F3D56"/>
<path d="M811.076 355.566H804.999V360.803H811.076V355.566Z" fill="#3F3D56"/>
<path d="M811.076 364.992H804.999V370.229H811.076V364.992Z" fill="#3F3D56"/>
<path d="M800.947 390.129V384.892H794.871V390.129H800.441H800.947Z" fill="#3F3D56"/>
<path d="M800.441 394.319H794.871V399.555H800.947V394.319H800.441Z" fill="#3F3D56"/>
<path d="M811.076 384.892H804.999V390.129H811.076V384.892Z" fill="#3F3D56"/>
<path d="M811.076 394.319H804.999V399.556H811.076V394.319Z" fill="#3F3D56"/>
<path d="M769.552 302.15H710.81V314.719H769.552V302.15Z" fill="#3F3D56"/>
<path d="M769.552 327.287H710.81V339.856H769.552V327.287Z" fill="#3F3D56"/>
<path d="M769.552 352.424H710.81V364.992H769.552V352.424Z" fill="#3F3D56"/>
<path d="M769.552 377.561H710.81V390.129H769.552V377.561Z" fill="#3F3D56"/>
<path d="M878 429.93H43V431.449H878V429.93Z" fill="#3F3D56"/>
<path d="M229.535 369.932H228.066V429.93H229.535V369.932Z" fill="#3F3D56"/>
<path d="M243.09 377.578C243.183 398.558 228.91 415.634 228.91 415.634C228.91 415.634 214.486 398.695 214.392 377.715C214.299 356.735 228.572 339.659 228.572 339.659C228.572 339.659 242.996 356.598 243.09 377.578Z" fill="#38D39F"/>
<path d="M376.412 369.932H374.944V429.93H376.412V369.932Z" fill="#3F3D56"/>
<path d="M389.968 377.578C390.061 398.558 375.788 415.634 375.788 415.634C375.788 415.634 361.364 398.695 361.27 377.715C361.177 356.735 375.45 339.659 375.45 339.659C375.45 339.659 389.874 356.598 389.968 377.578Z" fill="#38D39F"/>
<path d="M669.433 369.932H667.965V429.93H669.433V369.932Z" fill="#3F3D56"/>
<path d="M682.988 377.578C683.082 398.558 668.809 415.634 668.809 415.634C668.809 415.634 654.385 398.695 654.291 377.715C654.198 356.735 668.471 339.659 668.471 339.659C668.471 339.659 682.895 356.598 682.988 377.578Z" fill="#38D39F"/>
<path d="M474.453 168.667C489.866 168.667 502.36 165.76 502.36 162.173C502.36 158.587 489.866 155.68 474.453 155.68C459.041 155.68 446.547 158.587 446.547 162.173C446.547 165.76 459.041 168.667 474.453 168.667Z" fill="#38D39F"/>
<path d="M506.032 71.4167C506.032 89.8723 473.719 142.047 473.719 142.047C473.719 142.047 441.406 89.8723 441.406 71.4167C441.406 62.5541 444.81 54.0544 450.87 47.7875C456.93 41.5207 465.149 38 473.719 38C482.289 38 490.508 41.5207 496.568 47.7875C502.628 54.0544 506.032 62.5541 506.032 71.4167Z" fill="#38D39F"/>
<path d="M473.719 90.4035C483.859 90.4035 492.079 81.9028 492.079 71.4167C492.079 60.9306 483.859 52.4299 473.719 52.4299C463.579 52.4299 455.359 60.9306 455.359 71.4167C455.359 81.9028 463.579 90.4035 473.719 90.4035Z" fill="#CFF1F8"/>
<defs>
<clipPath id="clip0">
<rect width="921" height="431" fill="white"/>
</clipPath>
</defs>
</svg>
