<svg width="412" height="295" viewBox="0 0 412 295" fill="none" xmlns="http://www.w3.org/2000/svg">
<ellipse cx="210" cy="147.5" rx="202" ry="147.5" fill="#CFF1F8"/>
<path d="M154.966 295C240.551 295 309.931 289.468 309.931 282.645C309.931 275.821 240.551 270.29 154.966 270.29C69.3805 270.29 0 275.821 0 282.645C0 289.468 69.3805 295 154.966 295Z" fill="#3F3D56"/>
<path d="M58.1667 273.91C58.0812 273.767 56.0655 270.332 55.3667 263.2C54.7257 256.656 55.1379 245.627 60.743 230.241C71.3619 201.094 58.2959 177.577 58.1624 177.343L58.807 176.961C58.8408 177.021 62.2124 183.017 64.2041 192.564C66.8357 205.223 65.8775 218.384 61.4415 230.506C50.8409 259.603 58.7219 273.378 58.8026 273.513L58.1667 273.91Z" fill="#3F3D56"/>
<path d="M54.0145 175.631C56.689 175.631 58.8572 173.419 58.8572 170.689C58.8572 167.96 56.689 165.747 54.0145 165.747C51.34 165.747 49.1718 167.96 49.1718 170.689C49.1718 173.419 51.34 175.631 54.0145 175.631Z" fill="#38D39F"/>
<path d="M69.2875 193.879C71.962 193.879 74.1302 191.666 74.1302 188.937C74.1302 186.207 71.962 183.995 69.2875 183.995C66.613 183.995 64.4448 186.207 64.4448 188.937C64.4448 191.666 66.613 193.879 69.2875 193.879Z" fill="#3F3D56"/>
<path d="M58.8571 206.044C61.5317 206.044 63.6998 203.831 63.6998 201.102C63.6998 198.372 61.5317 196.16 58.8571 196.16C56.1826 196.16 54.0145 198.372 54.0145 201.102C54.0145 203.831 56.1826 206.044 58.8571 206.044Z" fill="#38D39F"/>
<path d="M71.5226 216.308C74.1972 216.308 76.3653 214.095 76.3653 211.366C76.3653 208.637 74.1972 206.424 71.5226 206.424C68.8481 206.424 66.6799 208.637 66.6799 211.366C66.6799 214.095 68.8481 216.308 71.5226 216.308Z" fill="#38D39F"/>
<path d="M55.132 232.275C57.8065 232.275 59.9747 230.062 59.9747 227.333C59.9747 224.603 57.8065 222.391 55.132 222.391C52.4574 222.391 50.2893 224.603 50.2893 227.333C50.2893 230.062 52.4574 232.275 55.132 232.275Z" fill="#3F3D56"/>
<path d="M61.0922 274.092C61.0922 274.092 56.2495 261.927 70.7776 252.803L61.0922 274.092Z" fill="#3F3D56"/>
<path d="M55.1365 273.871C55.1365 273.871 52.9326 260.934 35.8744 261.045L55.1365 273.871Z" fill="#3F3D56"/>
<path d="M137.83 58.924C137.83 58.924 138.203 68.808 135.967 71.0889C133.732 73.3698 147.143 81.3531 147.143 81.3531L154.966 68.808C154.966 68.808 151.986 63.4858 152.731 58.924H137.83Z" fill="#A0616A"/>
<path d="M113.803 259.836V269.34L125.351 270.1L124.606 259.836H113.803Z" fill="#A0616A"/>
<path d="M177.13 259.836V269.34L165.582 270.1L166.327 259.836H177.13Z" fill="#A0616A"/>
<path d="M119.763 154.533C119.763 154.533 113.803 176.582 117.528 194.069C117.528 194.069 117.528 201.672 119.018 203.193C120.508 204.713 120.881 204.713 119.763 205.474C118.646 206.234 116.41 208.135 117.528 209.275C118.646 210.416 119.018 211.936 118.273 212.316C117.528 212.696 116.783 213.457 117.528 214.977C118.273 216.498 113.803 257.175 113.803 257.175C113.803 257.175 109.333 262.117 113.803 262.497C118.273 262.877 125.723 264.778 126.468 261.736C127.213 258.695 133.174 215.738 133.174 215.738C133.174 215.738 133.919 214.597 135.409 212.696C136.899 210.796 136.154 210.035 136.154 209.655C136.154 209.275 143.976 173.16 143.976 173.16C143.976 173.16 155.524 214.217 156.642 214.977C157.759 215.738 158.132 215.738 158.132 216.878C158.132 218.019 157.387 218.779 158.132 219.919C158.539 220.531 158.912 221.166 159.25 221.82C159.25 221.82 161.112 264.398 164.837 264.398C168.562 264.398 179.738 263.637 178.62 260.216C177.503 256.794 176.013 257.555 176.013 257.555C176.013 257.555 178.62 222.58 172.287 212.316V203.953C172.287 203.193 172.66 202.812 172.287 202.052C171.915 201.292 173.405 156.053 166.327 153.392C159.249 150.731 119.763 154.533 119.763 154.533Z" fill="#D0CDE1"/>
<path d="M120.881 266.678C120.881 266.678 119.018 263.637 116.411 263.637C113.803 263.637 111.94 266.678 111.94 266.678L105.235 276.182C105.235 276.182 95.5498 282.265 99.2749 285.686C103 289.108 113.058 287.207 113.058 287.207C113.058 287.207 121.253 281.124 122.371 280.744C123.488 280.364 126.468 278.463 126.841 278.083C127.213 277.703 126.096 264.017 124.978 264.968C123.861 265.918 123.116 268.959 120.881 266.678Z" fill="#2F2E41"/>
<path d="M170.052 266.678C170.052 266.678 171.915 263.637 174.523 263.637C177.13 263.637 178.993 266.678 178.993 266.678L185.698 276.182C185.698 276.182 195.383 282.265 191.658 285.686C187.933 289.108 177.875 287.207 177.875 287.207C177.875 287.207 169.68 281.124 168.562 280.744C167.445 280.364 164.465 278.463 164.092 278.083C163.72 277.703 164.837 264.017 165.955 264.968C167.072 265.918 167.817 268.959 170.052 266.678Z" fill="#2F2E41"/>
<path d="M144.349 64.4362C151.755 64.4362 157.759 58.3089 157.759 50.7506C157.759 43.1923 151.755 37.0651 144.349 37.0651C136.943 37.0651 130.938 43.1923 130.938 50.7506C130.938 58.3089 136.943 64.4362 144.349 64.4362Z" fill="#A0616A"/>
<path d="M140.81 72.2293C140.81 72.2293 138.304 72.3703 137.136 68.4982L117.342 83.2538L125.537 105.683C125.537 105.683 126.655 117.848 125.537 121.269C124.42 124.691 123.675 127.352 123.675 128.872C123.675 130.393 115.852 155.863 118.832 157.004C121.812 158.144 167.259 162.706 168.376 155.103C169.494 147.5 164.651 97.3195 164.651 97.3195L172.474 77.9316L153.455 65.2357C153.455 65.2357 151.613 72.9896 140.81 72.2293Z" fill="#3F3D56"/>
<path d="M116.038 107.394L114.548 119.178C114.548 119.178 108.588 131.724 110.078 148.45L109.705 159.475C109.705 159.475 105.98 178.483 113.43 179.243C120.881 180.003 116.038 158.334 116.038 158.334L120.136 148.07L124.33 125.237L126.468 109.294L116.038 107.394Z" fill="#A0616A"/>
<path d="M122.743 82.6836L117.342 83.2538C117.342 83.2538 113.803 110.055 114.92 110.055C116.038 110.055 128.703 113.096 129.076 112.336C129.448 111.575 122.743 82.6836 122.743 82.6836Z" fill="#3F3D56"/>
<path d="M134.002 36.722L131.584 35.8249C131.584 35.8249 136.639 30.6666 143.672 31.1151L141.694 29.0966C141.694 29.0966 146.529 27.3024 150.924 32.0122C153.235 34.488 155.908 37.3982 157.575 40.6766H160.164L159.083 42.8819L162.865 45.0873L158.983 44.6912C159.351 46.5952 159.224 48.5642 158.616 50.4029L157.737 52.8699C157.737 52.8699 154.221 45.693 154.221 44.7959V47.0387C154.221 47.0387 151.803 45.0202 151.803 43.6746L150.485 45.2445L149.825 42.7774L141.694 45.2445L143.012 43.226L137.958 43.8989L139.936 41.4318C139.936 41.4318 134.222 44.3474 134.002 46.8144C133.782 49.2815 130.925 52.4213 130.925 52.4213L129.607 50.1786C129.607 50.1786 127.629 40.0861 134.002 36.722Z" fill="#2F2E41"/>
<path d="M169.214 231.704C182.947 231.704 194.08 215.535 194.08 195.59C194.08 175.644 182.947 159.475 169.214 159.475C155.482 159.475 144.349 175.644 144.349 195.59C144.349 215.535 155.482 231.704 169.214 231.704Z" fill="#3F3D56"/>
<path opacity="0.1" d="M169.214 231.704C182.947 231.704 194.08 215.535 194.08 195.59C194.08 175.644 182.947 159.475 169.214 159.475C155.482 159.475 144.349 175.644 144.349 195.59C144.349 215.535 155.482 231.704 169.214 231.704Z" fill="black"/>
<path d="M172.567 231.704C186.3 231.704 197.432 215.535 197.432 195.59C197.432 175.644 186.3 159.475 172.567 159.475C158.834 159.475 147.702 175.644 147.702 195.59C147.702 215.535 158.834 231.704 172.567 231.704Z" fill="#3F3D56"/>
<path opacity="0.1" d="M172.567 226.564C184.345 226.564 193.893 212.696 193.893 195.59C193.893 178.483 184.345 164.615 172.567 164.615C160.789 164.615 151.24 178.483 151.24 195.59C151.24 212.696 160.789 226.564 172.567 226.564Z" fill="black"/>
<path d="M172.382 210.51V206.874C170.581 206.838 168.718 206.19 167.631 205.29L168.376 202.878C169.668 203.866 171.234 204.408 172.848 204.426C175.053 204.426 176.543 202.95 176.543 200.898C176.543 198.918 175.332 197.694 173.034 196.614C169.867 195.174 167.911 193.518 167.911 190.386C167.911 187.398 169.743 185.13 172.6 184.59V180.954H174.525V184.446C175.96 184.466 177.361 184.903 178.562 185.706L177.785 188.082C176.633 187.277 175.269 186.85 173.873 186.858C171.482 186.858 170.581 188.514 170.581 189.954C170.581 191.826 171.73 192.762 174.432 194.058C177.63 195.57 179.245 197.442 179.245 200.646C179.245 203.49 177.537 206.154 174.338 206.766V210.51H172.382Z" fill="#38D39F"/>
<path d="M177.875 103.212V118.798C177.875 118.798 178.248 137.806 171.915 149.591L168.562 157.194C168.562 157.194 161.857 179.243 157.76 172.4C153.662 165.557 162.23 154.153 162.23 154.153L167.078 125.215L164.092 105.873L177.875 103.212Z" fill="#A0616A"/>
<path d="M165.21 76.9813L172.474 77.9317C172.474 77.9317 181.228 105.113 178.993 106.253C176.758 107.394 162.23 108.154 162.23 108.154L165.21 76.9813Z" fill="#3F3D56"/>
<path d="M390.767 19.1061H220.156V214.027H390.767V19.1061Z" fill="#F2F2F2"/>
<path d="M251.447 166.057H246.976V165.297H251.447V166.057ZM242.506 166.057H238.036V165.297H242.506V166.057ZM233.566 166.057H229.096V165.297H233.566V166.057ZM224.626 166.057H220.156V165.297H224.626V166.057Z" fill="#E6E6E6"/>
<path d="M314.029 130.013H309.559V129.253H314.029V130.013ZM305.089 130.013H300.618V129.253H305.089V130.013ZM296.148 130.013H291.678V129.253H296.148V130.013ZM287.208 130.013H282.738V129.253H287.208V130.013ZM278.268 130.013H273.797V129.253H278.268V130.013ZM269.327 130.013H264.857V129.253H269.327V130.013ZM260.387 130.013H255.917V129.253H260.387V130.013ZM251.447 130.013H246.976V129.253H251.447V130.013ZM242.506 130.013H238.036V129.253H242.506V130.013ZM233.566 130.013H229.096V129.253H233.566V130.013ZM224.626 130.013H220.156V129.253H224.626V130.013Z" fill="#E6E6E6"/>
<path d="M403.432 107.584H398.962V106.823H403.432V107.584ZM394.492 107.584H390.022V106.823H394.492V107.584ZM385.552 107.584H381.081V106.823H385.552V107.584ZM376.611 107.584H372.141V106.823H376.611V107.584ZM367.671 107.584H363.201V106.823H367.671V107.584ZM358.731 107.584H354.26V106.823H358.731V107.584ZM349.79 107.584H345.32V106.823H349.79V107.584ZM340.85 107.584H336.38V106.823H340.85V107.584ZM331.91 107.584H327.439V106.823H331.91V107.584ZM322.969 107.584H318.499V106.823H322.969V107.584ZM314.029 107.584H309.559V106.823H314.029V107.584ZM305.089 107.584H300.618V106.823H305.089V107.584ZM296.148 107.584H291.678V106.823H296.148V107.584ZM287.208 107.584H282.738V106.823H287.208V107.584ZM278.268 107.584H273.797V106.823H278.268V107.584ZM269.327 107.584H264.857V106.823H269.327V107.584ZM260.387 107.584H255.917V106.823H260.387V107.584ZM251.447 107.584H246.976V106.823H251.447V107.584ZM242.506 107.584H238.036V106.823H242.506V107.584ZM233.566 107.584H229.096V106.823H233.566V107.584ZM224.626 107.584H220.156V106.823H224.626V107.584Z" fill="#E6E6E6"/>
<path d="M254.054 0.284912H253.309V2.56584H254.054V0.284912Z" fill="#E6E6E6"/>
<path d="M254.054 173.046H253.309V168.56H254.054V173.046ZM254.054 164.074H253.309V159.588H254.054V164.074ZM254.054 155.102H253.309V150.616H254.054V155.102ZM254.054 146.13H253.309V141.644H254.054V146.13ZM254.054 137.157H253.309V132.671H254.054V137.157ZM254.054 128.185H253.309V123.699H254.054V128.185ZM254.054 119.213H253.309V114.727H254.054V119.213ZM254.054 110.241H253.309V105.755H254.054V110.241ZM254.054 101.269H253.309V96.7831H254.054V101.269ZM254.054 92.297H253.309V87.8108H254.054V92.297ZM254.054 83.3247H253.309V78.8388H254.054V83.3247ZM254.054 74.3527H253.309V69.8665H254.054V74.3527ZM254.054 65.3806H253.309V60.8945H254.054V65.3806ZM254.054 56.4084H253.309V51.9224H254.054V56.4084ZM254.054 47.4363H253.309V42.9502H254.054V47.4363ZM254.054 38.4642H253.309V33.9781H254.054V38.4642ZM254.054 29.492H253.309V25.0061H254.054V29.492ZM254.054 20.5199H253.309V16.0338H254.054V20.5199ZM254.054 11.5479H253.309V7.06177H254.054V11.5479Z" fill="#E6E6E6"/>
<path d="M254.054 177.532H253.309V179.813H254.054V177.532Z" fill="#E6E6E6"/>
<path d="M318.872 0.284912H318.127V2.56584H318.872V0.284912Z" fill="#E6E6E6"/>
<path d="M318.872 138.41H318.127V133.882H318.872V138.41ZM318.872 129.355H318.127V124.827H318.872V129.355ZM318.872 120.299H318.127V115.771H318.872V120.299ZM318.872 111.243H318.127V106.715H318.872V111.243ZM318.872 102.188H318.127V97.66H318.872V102.188ZM318.872 93.1321H318.127V88.6042H318.872V93.1321ZM318.872 84.0765H318.127V79.5486H318.872V84.0765ZM318.872 75.0207H318.127V70.493H318.872V75.0207ZM318.872 65.9651H318.127V61.4372H318.872V65.9651ZM318.872 56.9095H318.127V52.3817H318.872V56.9095ZM318.872 47.854H318.127V43.3261H318.872V47.854ZM318.872 38.7982H318.127V34.2705H318.872V38.7982ZM318.872 29.7426H318.127V25.2147H318.872V29.7426ZM318.872 20.687H318.127V16.1591H318.872V20.687ZM318.872 11.6314H318.127V7.10352H318.872V11.6314Z" fill="#E6E6E6"/>
<path d="M318.872 142.938H318.127V145.219H318.872V142.938Z" fill="#E6E6E6"/>
<path d="M220.156 214.027L254.054 179.433L269.514 195.209L318.499 145.219L350.163 177.532L407.157 119.369V214.027H220.156Z" fill="#38D39F"/>
<path d="M407.53 214.407H219.783V0H407.53V214.407ZM220.528 213.647H406.785V0.760309H220.528V213.647Z" fill="#3F3D56"/>
<path d="M253.682 169.929C256.356 169.929 258.524 167.716 258.524 164.987C258.524 162.258 256.356 160.045 253.682 160.045C251.007 160.045 248.839 162.258 248.839 164.987C248.839 167.716 251.007 169.929 253.682 169.929Z" fill="#3F3D56"/>
<path d="M318.499 134.575C321.174 134.575 323.342 132.362 323.342 129.633C323.342 126.903 321.174 124.691 318.499 124.691C315.825 124.691 313.656 126.903 313.656 129.633C313.656 132.362 315.825 134.575 318.499 134.575Z" fill="#3F3D56"/>
<path d="M407.157 112.146C409.832 112.146 412 109.933 412 107.204C412 104.474 409.832 102.262 407.157 102.262C404.483 102.262 402.315 104.474 402.315 107.204C402.315 109.933 404.483 112.146 407.157 112.146Z" fill="#3F3D56"/>
<path d="M373.259 30.4124C371.091 31.0539 368.185 31.5495 366.033 31.3741L368.841 33.2776L236.697 133.129L237.14 133.74L369.284 33.8886L370.249 37.1855C370.713 35.0338 372.025 32.341 373.259 30.4124Z" fill="#3F3D56"/>
</svg>
