<svg width="360" height="259" viewBox="0 0 360 259" fill="none" xmlns="http://www.w3.org/2000/svg">
<g clip-path="url(#clip0)">
<ellipse cx="184.324" cy="129.5" rx="175.676" ry="129.5" fill="#CFF1F8"/>
<path d="M285.144 13.064H285.144C268.935 13.064 255.795 30.1687 255.795 51.2684V78.0758H262.824L266.893 68.1434L265.876 78.0758H311.055L314.755 69.0464L313.83 78.0758H318.917V57.0272C318.917 32.747 303.796 13.064 285.144 13.064Z" fill="#2F2E41"/>
<path d="M270.977 61.2457C270.977 61.2457 280.138 86.317 267.924 91.3313L280.138 138.609L300.901 137.176L306.397 121.417L305.176 97.7782L303.344 82.0191C303.344 82.0191 290.519 85.6007 291.741 59.0967L270.977 61.2457Z" fill="#FFB8B8"/>
<path d="M266.092 90.615C266.092 90.615 245.939 88.466 247.771 105.658C249.603 122.85 251.435 126.431 251.435 126.431L253.267 152.219L242.275 160.098H231.893C231.893 160.098 200.137 168.694 216.015 178.007C231.893 187.319 237.389 170.843 237.389 170.843C237.389 170.843 266.702 170.843 268.534 165.113C270.367 159.382 266.092 90.615 266.092 90.615Z" fill="#FFB8B8"/>
<path d="M305.176 83.4517C305.176 83.4517 324.107 75.5722 325.329 92.764C326.55 109.956 326.55 111.388 326.55 111.388L330.214 135.743C330.214 135.743 337.543 157.233 337.543 163.68C337.543 170.127 343.039 190.184 343.039 190.184C343.039 190.184 350.367 218.121 342.428 217.404C334.489 216.688 333.268 187.319 333.268 187.319L316.779 148.637L311.894 124.999L305.176 83.4517Z" fill="#FFB8B8"/>
<path d="M269.145 87.7497H264.26L263.649 117.835C263.649 117.835 255.71 130.729 265.481 142.19L267.924 160.815L312.504 158.666L315.558 139.325C315.558 139.325 321.665 123.566 313.115 109.239L305.176 79.8701H300.901C300.901 79.8701 310.802 122.691 289.909 123.566C272.809 124.282 269.145 87.7497 269.145 87.7497Z" fill="#0C6655"/>
<path d="M290.983 258.49C291.061 249.38 291.129 243.91 291.129 243.91C291.129 243.91 290.668 249.38 289.886 258.49H241.923C254.597 211.65 266.219 173.154 266.69 171.609C266.693 171.592 266.697 171.575 266.703 171.559L268.183 165.776V165.773L268.809 163.321V163.309L269.471 160.74L270.367 157.234L310.06 155.802L311.17 158.73L314.948 168.693C315.276 168.804 315.588 168.976 315.87 169.203C322.663 174.422 331.143 212.659 338.874 258.49L290.983 258.49Z" fill="#2F2E41"/>
<path d="M314.336 150.07L266.092 152.219C266.092 152.219 263.89 171.56 266.092 171.56C266.702 171.56 316.779 176.574 316.168 167.978C315.558 159.382 314.336 150.07 314.336 150.07Z" fill="#2F2E41"/>
<path d="M280.416 69.45C289.893 69.45 297.575 60.4388 297.575 49.3229C297.575 38.207 289.893 29.1958 280.416 29.1958C270.939 29.1958 263.257 38.207 263.257 49.3229C263.257 60.4388 270.939 69.45 280.416 69.45Z" fill="#FFB8B8"/>
<path d="M293.487 23.5882C290.54 19.1376 286.194 16.3186 281.342 16.3186H280.766C269.657 16.3186 260.651 28.1104 260.651 42.6562V42.6563H264.373L264.974 37.2888L265.856 42.6563H287.934L289.784 38.1153L289.321 42.6563H293.665C295.691 54.4629 292.779 66.2694 284.928 78.076H292.327L296.026 68.994L295.102 78.076H309.206L311.98 57.1874C311.98 41.5438 304.231 28.2783 293.487 23.5882Z" fill="#2F2E41"/>
<path d="M297.542 25.7877C303.613 25.7877 308.535 20.0149 308.535 12.8938C308.535 5.77277 303.613 0 297.542 0C291.471 0 286.55 5.77277 286.55 12.8938C286.55 20.0149 291.471 25.7877 297.542 25.7877Z" fill="#2F2E41"/>
<path d="M201.495 133.315C209.771 133.315 216.48 125.445 216.48 115.738C216.48 106.031 209.771 98.1614 201.495 98.1614C193.219 98.1614 186.51 106.031 186.51 115.738C186.51 125.445 193.219 133.315 201.495 133.315Z" fill="#FF6584"/>
<path d="M94.0864 101.994C94.0813 102.497 93.9713 102.992 93.7659 103.434C93.5605 103.877 93.266 104.253 92.9081 104.532L92.8096 104.604H48.4197L48.5983 103.966C48.6291 103.853 51.8785 92.7912 66.2639 94.9269C67.6207 94.3828 80.8607 89.312 88.7862 95.0088C92.3025 97.537 94.0864 99.8869 94.0864 101.994Z" fill="#F2F2F2"/>
<path d="M164.972 191.982C169.439 192.095 172.994 195.893 172.994 195.893C172.994 195.893 169.304 199.508 164.836 199.396C160.368 199.283 156.814 195.485 156.814 195.485C156.814 195.485 160.504 191.87 164.972 191.982Z" fill="#38D39F"/>
<path d="M142.509 174.093C146.546 176.342 151.175 174.817 151.175 174.817C151.175 174.817 149.259 169.645 145.222 167.395C141.186 165.146 136.557 166.671 136.557 166.671C136.557 166.671 138.473 171.843 142.509 174.093Z" fill="#38D39F"/>
<path d="M142.92 171.858C147.37 171.381 151.265 174.686 151.265 174.686C151.265 174.686 147.945 178.765 143.495 179.242C139.045 179.719 135.149 176.414 135.149 176.414C135.149 176.414 138.469 172.335 142.92 171.858Z" fill="#3F3D56"/>
<path d="M159.233 172.762C158.807 177.98 161.607 182.563 161.607 182.563C161.607 182.563 165.1 178.687 165.526 173.469C165.953 168.251 163.152 163.667 163.152 163.667C163.152 163.667 159.66 167.544 159.233 172.762Z" fill="#3F3D56"/>
<path d="M180.192 204.763C177.858 209.233 178.661 214.793 178.661 214.793C178.661 214.793 183.249 213.106 185.583 208.636C187.917 204.166 187.114 198.606 187.114 198.606C187.114 198.606 182.527 200.293 180.192 204.763Z" fill="#3F3D56"/>
<path d="M173.42 253.364L173.761 253.094C172.562 251.053 171.907 248.64 171.88 246.161C171.889 242.536 173.407 239.183 174.876 235.94C175.148 235.338 175.42 234.738 175.681 234.138C176.778 231.693 177.652 229.119 178.289 226.459C180.566 216.532 178.324 204.82 172.291 195.129C167.505 187.441 160.371 180.718 150.48 174.577L150.288 175.002C160.122 181.109 167.211 187.785 171.959 195.413C177.92 204.987 180.138 216.546 177.892 226.334C177.263 228.961 176.399 231.504 175.316 233.919C175.055 234.516 174.785 235.114 174.513 235.714C173.021 239.008 171.479 242.415 171.469 246.16C171.496 248.735 172.175 251.243 173.42 253.364Z" fill="#3F3D56"/>
<path d="M130.985 175.21C133.139 175.21 134.885 173.161 134.885 170.635C134.885 168.108 133.139 166.06 130.985 166.06C128.831 166.06 127.084 168.108 127.084 170.635C127.084 173.161 128.831 175.21 130.985 175.21Z" fill="#3F3D56"/>
<path d="M229.214 258.769H14.4999L18.123 253.421L71.282 174.974L73.729 171.362L95.693 138.948L121.857 100.337L155.528 150.027L229.214 258.769Z" fill="#3F3D56"/>
<path d="M157.163 150.93C155.78 151.893 154.336 152.73 152.844 153.434C145.239 156.98 136.78 157.078 129.116 153.709C120.054 149.673 112.522 140.925 102.927 139.315C99.9911 138.822 97.0251 139.038 94.0569 139.246L121.652 98.5239L157.163 150.93Z" fill="#F2F2F2"/>
<path d="M167.369 98.6342C168.1 101.287 167.615 104.172 167.019 106.87C166.423 109.569 165.715 112.329 166.019 115.094C166.677 121.068 171.664 124.899 176.293 127.507C180.922 130.115 186.13 132.822 188.17 138.349C189.298 141.407 189.245 144.856 189.684 148.148C190.637 155.097 193.788 161.369 198.508 165.714C194.578 165.605 191.057 162.802 188.275 159.544C185.492 156.286 183.184 152.473 180.19 149.484C176.155 145.456 171.116 143.149 166.379 140.364C161.642 137.578 156.922 133.998 154.47 128.488C151.964 122.855 152.241 115.968 153.996 109.957C155.299 105.492 157.696 98.5648 160.782 95.3779C163.211 92.8693 166.45 95.2994 167.369 98.6342Z" fill="#F2F2F2"/>
<path d="M289.792 223.602H148.36V258.756H289.792V223.602Z" fill="#F2F2F2"/>
<path d="M143.844 227.454L159.239 189.652H282.197L293.692 227.454H143.844Z" fill="#3F3D56"/>
<path d="M239.295 192.06H182.23V214.212H239.295V192.06Z" fill="#F2F2F2"/>
<path d="M185.925 174.001L176.893 196.153H244.632L239.295 174.001H185.925Z" fill="#3F3D56"/>
<path d="M232.316 230.584H187.259V258.755H232.316V230.584Z" fill="#CCCCCC"/>
<path d="M177.919 231.548H153.902V258.755H177.919V231.548Z" fill="#CCCCCC"/>
<path d="M252.535 233.233H240.116V258.756H252.535V233.233Z" fill="#3F3D56"/>
<path d="M272.036 234.677H265.98V241.299H272.036V234.677Z" fill="#38D39F"/>
<path d="M280.144 234.677H274.089V241.299H280.144V234.677Z" fill="#38D39F"/>
<path d="M272.036 243.707H265.98V250.569H272.036V243.707Z" fill="#38D39F"/>
<path d="M280.144 243.707H274.089V250.569H280.144V243.707Z" fill="#38D39F"/>
<path d="M192.203 198.122H187.464V203.304H192.203V198.122Z" fill="#3F3D56"/>
<path d="M198.549 198.122H193.81V203.304H198.549V198.122Z" fill="#3F3D56"/>
<path d="M192.203 205.188H187.464V210.558H192.203V205.188Z" fill="#3F3D56"/>
<path d="M198.549 205.188H193.81V210.558H198.549V205.188Z" fill="#3F3D56"/>
<path d="M227.715 198.122H222.976V203.304H227.715V198.122Z" fill="#3F3D56"/>
<path d="M234.061 198.122H229.322V203.304H234.061V198.122Z" fill="#3F3D56"/>
<path d="M227.715 205.188H222.976V210.558H227.715V205.188Z" fill="#3F3D56"/>
<path d="M234.061 205.188H229.322V210.558H234.061V205.188Z" fill="#3F3D56"/>
<path d="M210.062 198.122H205.323V203.304H210.062V198.122Z" fill="#3F3D56"/>
<path d="M216.407 198.122H211.668V203.304H216.407V198.122Z" fill="#3F3D56"/>
<path d="M210.062 205.188H205.323V210.558H210.062V205.188Z" fill="#3F3D56"/>
<path d="M216.407 205.188H211.668V210.558H216.407V205.188Z" fill="#3F3D56"/>
<path d="M245.871 235.819H242.887V239.082H245.871V235.819Z" fill="#F2F2F2"/>
<path d="M249.867 235.819H246.883V239.082H249.867V235.819Z" fill="#F2F2F2"/>
<path d="M245.871 240.268H242.887V243.649H245.871V240.268Z" fill="#F2F2F2"/>
<path d="M249.867 240.268H246.883V243.649H249.867V240.268Z" fill="#F2F2F2"/>
<path d="M250.893 248.763C251.346 248.763 251.714 248.332 251.714 247.8C251.714 247.268 251.346 246.837 250.893 246.837C250.44 246.837 250.072 247.268 250.072 247.8C250.072 248.332 250.44 248.763 250.893 248.763Z" fill="#F2F2F2"/>
<path d="M201.393 168.227H194.619V170.136H195.974V175.691H200.038V170.136H201.393V168.227Z" fill="#F2F2F2"/>
<path d="M187.518 250.566C186.351 255.626 182.354 258.76 182.354 258.76C182.354 258.76 180.249 253.69 181.416 248.63C182.583 243.57 186.58 240.436 186.58 240.436C186.58 240.436 188.685 245.506 187.518 250.566Z" fill="#38D39F"/>
<path d="M176.902 250.566C178.069 255.626 182.066 258.76 182.066 258.76C182.066 258.76 184.171 253.69 183.004 248.63C181.837 243.57 177.84 240.436 177.84 240.436C177.84 240.436 175.735 245.506 176.902 250.566Z" fill="#38D39F"/>
<path d="M178.617 249.479C181.819 253.135 182.21 258.756 182.21 258.756C182.21 258.756 177.409 258.449 174.207 254.792C171.005 251.136 170.614 245.515 170.614 245.515C170.614 245.515 175.415 245.823 178.617 249.479Z" fill="#3F3D56"/>
<path d="M185.804 249.479C182.601 253.135 182.21 258.756 182.21 258.756C182.21 258.756 187.011 258.449 190.213 254.792C193.415 251.136 193.806 245.515 193.806 245.515C193.806 245.515 189.006 245.823 185.804 249.479Z" fill="#3F3D56"/>
<path d="M360 258.519H0V259H360V258.519Z" fill="#3F3D56"/>
<path d="M232.697 121.555C232.692 122.059 232.582 122.553 232.376 122.996C232.171 123.438 231.876 123.815 231.518 124.093L231.42 124.165H187.03L187.208 123.527C187.239 123.414 190.489 112.353 204.874 114.488C206.231 113.944 219.471 108.874 227.396 114.57C230.913 117.099 232.697 119.448 232.697 121.555Z" fill="#F2F2F2"/>
<path d="M96.0531 182.747C96.0481 183.25 95.9381 183.745 95.7327 184.187C95.5273 184.63 95.2328 185.006 94.8749 185.284L94.7764 185.357H50.3865L50.5651 184.719C50.5959 184.605 53.8453 173.544 68.2307 175.68C69.5875 175.136 82.8275 170.065 90.753 175.762C94.2693 178.29 96.0531 180.64 96.0531 182.747Z" fill="#F2F2F2"/>
</g>
<defs>
<clipPath id="clip0">
<rect width="360" height="259" fill="white"/>
</clipPath>
</defs>
</svg>
