<svg width="412" height="295" viewBox="0 0 412 295" fill="none" xmlns="http://www.w3.org/2000/svg">
<g clip-path="url(#clip0)">
<ellipse cx="210" cy="147" rx="202" ry="147" fill="#CFF1F8"/>
<path d="M229.967 289.471C311.843 289.471 378.216 224.671 378.216 144.736C378.216 64.8004 311.843 0 229.967 0C148.091 0 81.718 64.8004 81.718 144.736C81.718 224.671 148.091 289.471 229.967 289.471Z" fill="#F2F2F2"/>
<path d="M275.277 90.4118C296.569 90.4118 313.83 73.5602 313.83 52.7728C313.83 31.9853 296.569 15.1337 275.277 15.1337C253.985 15.1337 236.724 31.9853 236.724 52.7728C236.724 73.5602 253.985 90.4118 275.277 90.4118Z" fill="#FF6584"/>
<path d="M113.656 28.1259L114.71 49.5749C119.078 55.263 123.791 61.7722 128.442 68.8663L129.106 36.1437L129.473 36.3723C124.092 32.6201 118.623 29.7494 113.29 27.9271L113.656 28.1259Z" fill="#38D39F"/>
<path d="M113.942 48.5784L112.921 27.8014C106.931 25.8069 101.119 25.1453 95.8065 26.0703C95.5301 26.1184 95.2584 26.1738 94.9873 26.23C96.3372 27.6439 104.204 35.9941 113.942 48.5784Z" fill="#38D39F"/>
<path d="M162.309 74.1678L162.663 74.4973C161.211 71.8315 159.672 69.2396 158.046 66.7218L148.14 104.777L147.972 104.633C148.688 106.302 149.369 107.96 150.015 109.607L162.309 74.1678Z" fill="#38D39F"/>
<path d="M147.218 52.5328L147.583 52.8178C142.345 46.7594 136.391 41.3278 129.845 36.6367L129.168 69.9829C133.496 76.6513 137.371 83.2196 140.793 89.6878L147.218 52.5328Z" fill="#38D39F"/>
<path d="M75.3574 62.9435C75.9139 68.5641 77.0507 74.1153 78.7504 79.5128L137.824 85.4616C134.74 79.9094 131.557 74.7004 128.466 69.9529L75.5075 63.397L75.3574 62.9435Z" fill="#38D39F"/>
<path d="M80.8995 85.737L80.7404 85.2844L140.528 90.4729C139.806 89.0935 139.076 87.7325 138.337 86.3898L79.0457 80.419L78.8898 79.9658C79.4874 81.8682 80.1573 83.792 80.8995 85.737Z" fill="#38D39F"/>
<path d="M157.373 65.9283L157.732 66.2377C154.768 61.6862 151.492 57.3352 147.928 53.2142L141.417 90.8718C143.674 95.1975 145.718 99.4623 147.549 103.666L157.373 65.9283Z" fill="#38D39F"/>
<path d="M156.108 128.833C158.485 138.872 159.385 148.364 158.791 157.204C162.134 150.249 174.849 121.436 170.096 94.5835L156.108 128.833Z" fill="#38D39F"/>
<path d="M91.8672 106.032C95.0308 110.193 98.4764 114.141 102.181 117.852L102.036 117.349L155.22 128.031C153.836 122.425 152.109 116.906 150.049 111.502L91.8672 106.032Z" fill="#38D39F"/>
<path d="M113.483 48.9287C102.943 35.3159 94.6271 26.7121 94.5075 26.5889L94.6445 26.3021C86.6464 28.0749 80.9993 33.3876 77.8922 41.0774L113.483 48.9287Z" fill="#38D39F"/>
<path d="M150.508 110.884C150.704 111.396 150.904 111.909 151.093 112.419C152.92 117.304 154.472 122.283 155.745 127.333L169.599 93.4078L169.938 93.7392C169.06 89.0185 167.574 84.4253 165.514 80.0693C164.697 78.3613 163.842 76.6791 162.948 75.0227L150.508 110.884Z" fill="#38D39F"/>
<path d="M127.847 69.0071C123.244 61.9967 118.585 55.5657 114.266 49.9445L77.8589 41.9127L77.7354 41.4641C75.4626 47.3077 74.6316 54.4865 75.32 62.5045L127.847 69.0071Z" fill="#38D39F"/>
<path d="M155.435 128.922L102.641 118.318C124.847 140.574 155.915 157.642 157.898 158.721C158.823 148.915 157.774 138.843 155.435 128.922Z" fill="#38D39F"/>
<path d="M149.675 110.588L149.687 110.554C147.148 104.021 144.251 97.6251 141.008 91.3956L81.073 86.1943C82.0906 88.8251 83.2406 91.484 84.5231 94.1711C86.3911 97.9993 88.6128 101.653 91.1608 105.087L149.675 110.588Z" fill="#38D39F"/>
<path d="M225.915 100.372L212.714 117.548C212.362 124.649 211.739 132.597 210.687 140.957L232.576 116.168L232.709 116.572C231.017 110.332 228.68 104.716 225.763 99.9908L225.915 100.372Z" fill="#38D39F"/>
<path d="M212.773 116.302L225.561 99.6646C222.25 94.3984 218.206 90.2696 213.51 87.6739C213.266 87.5388 213.02 87.4123 212.775 87.2867C212.891 89.2163 213.494 100.546 212.773 116.302Z" fill="#38D39F"/>
<path d="M233.308 166.129L233.365 166.603C233.988 163.646 234.496 160.691 234.889 157.74L202.398 180.881L202.363 180.665C201.824 182.397 201.265 184.098 200.687 185.769L233.308 166.129Z" fill="#38D39F"/>
<path d="M235.819 140.069L235.914 140.516C235.838 132.588 234.801 124.697 232.823 117.008L210.517 142.269C209.494 150.1 208.188 157.572 206.597 164.685L235.819 140.069Z" fill="#38D39F"/>
<path d="M173.671 103.34C170.428 108.015 167.677 112.998 165.46 118.214L207.071 159.581C208.323 153.384 209.275 147.39 209.996 141.809L173.491 103.782L173.671 103.34Z" fill="#38D39F"/>
<path d="M163.049 124.346L163.222 123.898L205.88 165.124C206.225 163.612 206.552 162.109 206.86 160.615L165.095 119.096L165.271 118.65C164.489 120.487 163.748 122.386 163.049 124.346Z" fill="#38D39F"/>
<path d="M234.888 156.709L234.963 157.171C235.654 151.82 235.974 146.429 235.921 141.036L206.304 165.985C205.216 170.722 204.004 175.279 202.668 179.658L234.888 156.709Z" fill="#38D39F"/>
<path d="M192.819 204.371C188.091 213.582 182.583 221.453 176.351 227.892C183.469 224.617 212.086 210.343 225.968 186.702L192.819 204.371Z" fill="#38D39F"/>
<path d="M158.237 146.807C157.956 151.981 158.03 157.168 158.459 162.332L158.676 161.855L192.659 203.199C195.256 198.02 197.531 192.694 199.475 187.249L158.237 146.807Z" fill="#38D39F"/>
<path d="M212.191 116.286C212.967 99.239 212.182 87.4338 212.171 87.2645L212.464 87.1289C205.146 83.5139 197.325 84.0892 189.909 88.077L212.191 116.286Z" fill="#38D39F"/>
<path d="M200.232 187.059C200.048 187.576 199.867 188.095 199.68 188.606C197.895 193.506 195.839 198.307 193.519 202.989L226.353 185.487L226.397 185.953C228.806 181.771 230.662 177.308 231.921 172.67C232.408 170.846 232.848 169.018 233.241 167.185L200.232 187.059Z" fill="#38D39F"/>
<path d="M210.137 140.695C211.171 132.429 211.784 124.575 212.131 117.557L189.337 88.6996L189.535 88.2772C183.967 91.3626 178.637 96.3741 173.929 102.978L210.137 140.695Z" fill="#38D39F"/>
<path d="M192.243 204.02L158.509 162.978C161.073 193.947 173.85 226.439 174.673 228.504C181.791 221.528 187.563 213.118 192.243 204.02Z" fill="#38D39F"/>
<path d="M199.784 186.313L199.815 186.294C202.128 179.681 204.075 172.951 205.647 166.134L162.884 124.806C161.949 127.466 161.097 130.23 160.33 133.098C159.267 137.21 158.592 141.408 158.31 145.639L199.784 186.313Z" fill="#38D39F"/>
<path d="M94.2905 123.304L102.084 143.385C108.039 147.476 114.581 152.244 121.251 157.587L111.522 126.267L111.943 126.374C105.639 124.429 99.5286 123.349 93.8792 123.225L94.2905 123.304Z" fill="#38D39F"/>
<path d="M101.038 142.669L93.489 123.217C87.1607 123.128 81.4237 124.252 76.6641 126.735C76.4165 126.865 76.1756 126.999 75.9355 127.135C77.667 128.072 87.792 133.639 101.038 142.669Z" fill="#38D39F"/>
<path d="M155.138 152.409L155.578 152.616C153.354 150.519 151.069 148.518 148.726 146.614L151.353 185.795L151.148 185.709C152.358 187.08 153.53 188.452 154.666 189.823L155.138 152.409Z" fill="#38D39F"/>
<path d="M133.936 136.388L134.373 136.549C127.474 132.367 120.092 128.999 112.381 126.513L122.295 158.43C128.522 163.466 134.287 168.543 139.589 173.662L133.936 136.388Z" fill="#38D39F"/>
<path d="M68.8904 167.974C71.1991 173.151 74.0378 178.088 77.363 182.708L135.427 170.539C130.737 166.189 126.06 162.196 121.618 158.614L69.1768 168.36L68.8904 167.974Z" fill="#38D39F"/>
<path d="M81.3776 187.979L81.083 187.596L139.586 174.488C138.462 173.395 137.337 172.321 136.21 171.266L77.9309 183.481L77.6392 183.097C78.8098 184.726 80.056 186.353 81.3776 187.979Z" fill="#38D39F"/>
<path d="M147.834 146.063L148.274 146.249C144.014 142.815 139.522 139.665 134.827 136.822L140.557 174.6C144.073 178.033 147.367 181.472 150.44 184.917L147.834 146.063Z" fill="#38D39F"/>
<path d="M166.548 206.269C171.986 215.099 175.847 223.854 178.081 232.441C179.058 224.818 182.029 193.579 169.007 169.475L166.548 206.269Z" fill="#38D39F"/>
<path d="M98.2338 203.971C102.56 206.972 107.087 209.688 111.784 212.099L111.488 211.664L165.449 205.774C162.358 200.86 158.968 196.132 155.298 191.615L98.2338 203.971Z" fill="#38D39F"/>
<path d="M100.712 143.14C86.3786 133.375 75.7456 127.702 75.5928 127.621L75.6324 127.307C68.5872 131.406 64.8986 138.163 64.3782 146.414L100.712 143.14Z" fill="#38D39F"/>
<path d="M155.538 190.889C155.887 191.317 156.24 191.744 156.581 192.172C159.865 196.267 162.918 200.533 165.727 204.952L168.162 168.507L168.589 168.72C166.26 164.495 163.393 160.575 160.054 157.054C158.737 155.677 157.39 154.335 156.016 153.029L155.538 190.889Z" fill="#38D39F"/>
<path d="M120.73 157.901C114.132 152.623 107.665 147.913 101.779 143.87L64.611 147.218L64.3516 146.829C64.0402 153.072 65.5227 160.15 68.7158 167.568L120.73 157.901Z" fill="#38D39F"/>
<path d="M165.935 206.556L112.37 212.403C140.534 226.868 175.485 233.725 177.712 234.152C175.488 224.548 171.301 215.286 165.935 206.556Z" fill="#38D39F"/>
<path d="M154.653 190.859L154.653 190.823C150.171 185.375 145.391 180.167 140.334 175.221L81.6874 188.361C83.4881 190.556 85.4236 192.738 87.494 194.906C90.4825 197.984 93.7523 200.788 97.2627 203.285L154.653 190.859Z" fill="#38D39F"/>
<path d="M412 246.012C412 263.371 320.537 294.128 207.711 294.128C94.8847 294.128 3.42126 263.371 3.42126 246.012C3.42126 228.654 94.8847 231.267 207.711 231.267C320.537 231.267 412 228.654 412 246.012Z" fill="#3F3D56"/>
<path opacity="0.1" d="M412 246.012C412 263.371 320.537 294.128 207.711 294.128C94.8847 294.128 3.42126 263.371 3.42126 246.012C3.42126 228.654 94.8847 231.267 207.711 231.267C320.537 231.267 412 228.654 412 246.012Z" fill="black"/>
<path d="M207.711 277.443C320.537 277.443 412 263.371 412 246.012C412 228.654 320.537 214.582 207.711 214.582C94.8847 214.582 3.42126 228.654 3.42126 246.012C3.42126 263.371 94.8847 277.443 207.711 277.443Z" fill="#3F3D56"/>
<path opacity="0.1" d="M243.128 213.161C243.128 232.072 216.128 226.223 183.069 226.223C150.009 226.223 123.41 232.072 123.41 213.161C123.41 194.249 150.407 190.136 183.466 190.136C216.525 190.136 243.128 194.249 243.128 213.161Z" fill="black"/>
<path d="M243.128 208.504C243.128 227.416 216.128 221.566 183.069 221.566C150.009 221.566 123.41 227.416 123.41 208.504C123.41 189.592 150.407 185.479 183.466 185.479C216.525 185.479 243.128 189.592 243.128 208.504Z" fill="#3F3D56"/>
<path d="M136.778 156.467C137.505 155.962 138.307 155.569 139.157 155.302C144.544 153.345 150.189 152.145 155.922 151.739C160.907 151.394 166.31 151.804 170.204 154.863C170.81 155.296 171.305 155.86 171.653 156.51C172.143 157.542 171.994 158.742 171.835 159.869C171.8 160.306 171.687 160.734 171.502 161.133C170.978 162.107 169.688 162.448 168.568 162.331C167.447 162.215 166.396 161.752 165.291 161.537C164.606 161.421 163.915 161.352 163.221 161.331L156.289 160.965C151.979 160.737 147.612 160.513 143.384 161.362C142.083 161.591 140.825 162.014 139.656 162.617C138.69 163.146 138.04 163.906 137.144 162.928C135.569 161.21 134.698 158.053 136.778 156.467Z" fill="#2F2E41"/>
<path d="M147.519 159.459C147.519 159.459 156.842 155.379 160.378 160.087C163.914 164.795 158.449 162.912 158.449 162.912L152.341 164.795L145.59 163.54L147.519 159.459Z" fill="#F2F2F2"/>
<path d="M148.001 156.478C148.001 156.478 149.287 162.441 148.322 164.011C147.358 165.58 153.788 167.777 153.788 167.777L159.896 165.266C159.896 165.266 158.288 155.536 159.896 153.653L148.001 156.478Z" fill="#FFB9B9"/>
<path opacity="0.1" d="M148.001 156.478C148.001 156.478 149.287 162.441 148.322 164.011C147.358 165.58 153.788 167.777 153.788 167.777L159.896 165.266C159.896 165.266 158.288 155.536 159.896 153.653L148.001 156.478Z" fill="black"/>
<path d="M141.977 228.184C142.841 229.934 143.552 231.752 144.101 233.619C144.11 233.681 144.132 233.74 144.166 233.793C144.2 233.845 144.246 233.891 144.299 233.925C144.352 233.96 144.412 233.983 144.475 233.993C144.538 234.003 144.602 234 144.664 233.985L150.382 233.979C151.088 233.978 152.035 233.756 152.027 233.067C152.022 232.583 151.515 232.282 151.138 231.967C150.091 231.095 149.819 229.658 149.385 228.383C148.543 225.926 146.919 223.797 144.75 222.305C144.457 222.08 144.12 221.918 143.759 221.826C143.397 221.775 143.027 221.795 142.673 221.884C141.669 222.082 137.921 222.758 138.629 224.184C138.934 224.797 140.063 225.436 140.537 226.01C141.089 226.686 141.572 227.415 141.977 228.184Z" fill="#575A89"/>
<path d="M161.862 221.709C161.66 222.123 161.436 222.525 161.189 222.915C160.361 224.249 159.383 225.494 158.612 226.86C158.092 227.694 157.771 228.632 157.672 229.605C157.628 230.091 157.705 230.58 157.894 231.031C158.084 231.483 158.382 231.883 158.764 232.199C159.594 232.814 160.732 232.842 161.764 232.699C162.795 232.556 163.821 232.267 164.86 232.343C164.51 230.407 166.182 228.704 166.6 226.781C166.717 226.241 166.735 225.681 166.892 225.151C167.062 224.666 167.278 224.198 167.539 223.754C168.372 222.171 168.96 220.476 169.286 218.725C169.325 218.513 164.203 218.478 163.722 218.58C162.223 218.896 162.442 220.495 161.862 221.709Z" fill="#575A89"/>
<path d="M122.38 191.301C120.918 193.535 121.255 196.496 122.282 198.95C123.309 201.404 124.943 203.574 126.062 205.99C126.776 207.53 127.276 209.163 128.079 210.661C129.073 212.515 130.526 214.15 131.193 216.139C131.618 217.407 131.716 218.796 132.405 219.948C132.822 220.564 133.297 221.14 133.825 221.668C135.309 223.328 136.424 225.272 137.098 227.375C137.727 225.543 139.614 224.342 141.551 223.946C143.488 223.55 145.495 223.819 147.455 224.089C146.362 222.436 145.258 220.762 144.606 218.899C143.976 217.098 143.79 215.182 143.365 213.324C142.495 209.515 140.635 206.001 138.794 202.537L148.257 201.804C149.802 201.652 151.355 201.596 152.907 201.635C155.349 201.748 157.742 202.332 160.172 202.603C162.602 202.873 165.172 202.802 167.337 201.693C163.197 207.492 161.041 214.422 161.177 221.49C162.102 220.79 163.176 220.301 164.32 220.058C165.464 219.816 166.649 219.826 167.788 220.089C168.928 220.351 169.992 220.859 170.905 221.575C171.817 222.291 172.554 223.198 173.061 224.228C176.77 219.28 176.329 212.392 179.267 206.973C179.872 205.859 180.612 204.821 181.264 203.733C182.497 201.548 183.552 199.272 184.42 196.925C185.242 194.873 186.07 192.589 185.282 190.523C184.954 189.74 184.477 189.024 183.877 188.414C182.181 186.589 179.821 185.239 177.298 185.183C173.425 185.097 170.225 187.9 166.827 189.717C162.771 191.822 158.183 192.751 153.605 192.394C148.938 192.072 144.48 190.58 140.034 189.267C137.81 188.579 135.549 188.01 133.261 187.561C131.354 187.212 129.539 187.599 127.659 188.075C125.614 188.593 123.558 189.502 122.38 191.301Z" fill="#2F2E41"/>
<path d="M162.789 150.514C162.787 153.011 161.77 155.405 159.962 157.17C158.154 158.935 155.702 159.928 153.145 159.93C152.57 159.931 151.996 159.881 151.431 159.78C149.626 159.461 147.952 158.647 146.604 157.433C145.256 156.218 144.291 154.654 143.822 152.923C143.353 151.191 143.399 149.366 143.955 147.659C144.511 145.953 145.554 144.437 146.961 143.289C148.369 142.14 150.083 141.408 151.901 141.177C153.72 140.946 155.569 141.226 157.23 141.985C158.892 142.743 160.297 143.949 161.282 145.459C162.266 146.97 162.789 148.724 162.789 150.514Z" fill="#FFB9B9"/>
<path d="M147.519 159.459C147.519 159.459 149.287 160.244 149.93 160.872C150.573 161.5 152.502 164.952 155.716 162.755C158.931 160.558 159.253 159.302 160.217 159.302C161.182 159.302 162.468 161.186 162.468 161.186L171.308 187.08C168.926 189.705 166.164 191.979 163.111 193.828C157.967 196.966 151.859 198.536 148.965 197.28C146.072 196.025 140.607 195.083 139.642 192.572C138.678 190.061 137.07 182.529 137.07 182.529L141.571 163.383L147.519 159.459Z" fill="#F2F2F2"/>
<path d="M146.277 185.648C146.978 184.17 147.08 182.497 147.14 180.869C147.234 179.257 147.19 177.64 147.009 176.035C146.724 173.935 146.023 171.913 145.581 169.839C145.194 168.021 145.005 166.167 145.019 164.31C145.025 163.462 145.088 162.57 145.561 161.859C145.891 161.364 146.408 160.98 146.614 160.424C147.018 159.334 146.019 158.192 144.924 157.743C143.591 157.255 142.132 157.198 140.763 157.58C139.404 157.963 138.092 158.487 136.848 159.144C135.907 159.535 135.042 160.081 134.29 160.758C133.292 161.766 132.854 163.17 132.499 164.529C132.216 165.616 131.964 166.75 132.179 167.852C132.53 169.642 134.024 170.988 134.821 172.636C135.746 174.55 135.684 176.78 135.316 178.865C134.948 180.95 134.295 182.989 134.093 185.096C133.892 187.203 134.201 189.468 135.553 191.121C136.104 191.795 137.599 193.393 138.607 193.212C139.4 193.07 140.548 191.367 141.187 190.827C143.031 189.268 145.219 187.881 146.277 185.648Z" fill="#2F2E41"/>
<path d="M163.121 158.436C163.149 160.186 162.359 161.85 161.429 163.347C160.5 164.845 159.408 166.261 158.723 167.879C157.872 169.904 157.698 172.14 158.226 174.268C158.423 174.993 158.659 175.706 158.935 176.406L160.697 181.123C160.934 181.864 161.278 182.569 161.718 183.216C162.117 183.712 162.584 184.151 163.106 184.52C164.444 185.575 165.984 186.359 167.636 186.827C169.299 187.291 171.074 187.192 172.672 186.546C172.842 180.152 173.894 173.809 175.8 167.689C176.153 166.559 176.538 165.37 176.266 164.219C175.962 162.93 174.901 161.962 173.893 161.078C170.81 158.376 167.42 155.537 163.293 155.172C160.905 154.961 163.1 157.17 163.121 158.436Z" fill="#2F2E41"/>
<path d="M142.024 194.927C142.268 195.395 142.42 195.903 142.662 196.372C143.019 197.001 143.46 197.58 143.974 198.094C146.123 200.421 148.751 202.739 151.957 202.88C152.276 202.909 152.597 202.869 152.898 202.764C153.169 202.628 153.402 202.43 153.577 202.187C153.751 201.943 153.862 201.661 153.9 201.366C154.127 200.151 153.577 198.938 153.027 197.825C151.834 195.413 150.493 192.941 148.26 191.385C147.145 190.639 145.871 190.15 144.534 189.954C143.198 189.757 141.833 189.859 140.542 190.252C139.379 190.602 137.451 191.213 138.991 192.249C140.159 193.035 141.346 193.633 142.024 194.927Z" fill="#FFB9B9"/>
<path d="M155.884 164.224C155.549 163.342 155.036 162.534 154.375 161.85C153.708 161.299 152.919 160.909 152.071 160.71C150.971 160.403 149.833 160.244 148.69 160.237C147.328 160.228 145.749 160.585 145.171 161.788C144.712 162.744 145.068 163.876 145.53 164.83C145.728 165.324 146.057 165.758 146.483 166.087C147.071 166.474 147.83 166.462 148.526 166.592C149.605 166.859 150.627 167.311 151.545 167.927L153.93 169.334L158.026 171.752C157.918 171.688 157.956 168.946 157.83 168.496C157.425 167.048 156.513 165.596 155.884 164.224Z" fill="#FFB9B9"/>
<path d="M143.952 232.909C142.994 234.18 143.186 235.998 142.337 237.342C141.601 238.506 140.214 239.117 139.294 240.149C139 240.492 138.738 240.86 138.511 241.248C137.657 242.644 136.963 244.434 137.804 245.838C138.481 246.967 139.903 247.409 141.207 247.709C142.855 248.09 144.568 248.394 146.235 248.103C147.903 247.813 149.532 246.816 150.127 245.268C150.243 244.878 150.382 244.496 150.543 244.121C151.446 242.384 154.281 242.366 155.206 240.639C155.853 239.431 155.258 237.971 154.663 236.737L152.847 232.97C152.244 231.719 149.8 232.438 148.526 232.139C146.865 231.748 145.147 231.317 143.952 232.909Z" fill="#2F2E41"/>
<path d="M158.002 229.672C157.258 230.244 156.69 231.004 156.359 231.87C155.46 233.895 155.151 236.115 154.851 238.302C154.68 239.172 154.663 240.064 154.799 240.94C155.187 242.727 156.845 244.042 158.629 244.588C160.414 245.135 162.328 245.051 164.196 244.961C164.799 244.976 165.397 244.857 165.946 244.614C166.885 244.109 167.252 242.921 167.091 241.886C166.93 240.851 166.351 239.93 165.784 239.042C165.217 238.153 164.638 237.233 164.475 236.199C164.202 234.458 164.973 231.904 163.878 230.329C162.78 228.751 159.467 228.67 158.002 229.672Z" fill="#2F2E41"/>
<path d="M162.546 145.607C162.375 145.044 161.997 144.563 161.485 144.254C161.511 143.651 161.435 143.048 161.261 142.469C160.676 140.783 159.293 140.879 157.987 140.134C157.421 139.811 157.456 139.525 157.161 138.994C156.775 138.298 156.196 137.721 155.491 137.33C154.653 136.809 153.769 136.273 152.778 136.207C150.696 136.068 149.1 137.98 147.109 138.594C146.232 138.864 145.29 138.875 144.408 139.131C143.526 139.387 142.646 139.997 142.515 140.886C142.454 141.297 142.561 141.718 142.499 142.128C142.377 142.943 141.644 143.514 141.154 144.185C140.069 145.668 140.193 147.763 141.061 149.377C141.243 149.711 141.453 150.03 141.686 150.333C141.759 151.095 141.983 151.837 142.347 152.516C143.214 154.129 144.707 155.335 146.266 156.337C146.138 155.802 146.061 155.256 146.035 154.708C146.013 154.525 146.037 154.339 146.106 154.168C146.279 153.813 146.738 153.719 147.088 153.525C147.813 153.123 148.097 152.233 148.118 151.42C148.139 150.606 147.962 149.791 148.05 148.982C148.053 148.796 148.096 148.613 148.177 148.444C148.257 148.275 148.373 148.125 148.517 148.003C148.784 147.854 149.09 147.782 149.397 147.798C150.882 147.738 152.433 147.712 153.743 147.026C154.165 146.752 154.619 146.528 155.095 146.358C156.208 146.075 157.346 146.837 157.987 147.769C158.628 148.701 158.948 149.81 159.54 150.773C160.132 151.736 161.154 152.594 162.298 152.48C162.363 152.48 162.427 152.467 162.486 152.442C162.544 152.416 162.597 152.379 162.64 152.332C162.69 152.245 162.711 152.146 162.703 152.048L162.767 147.778C162.82 147.047 162.746 146.313 162.546 145.607Z" fill="#2F2E41"/>
<path d="M132.025 167.943C131.104 169.269 130.043 170.543 129.538 172.066C129.24 172.962 129.148 173.908 128.933 174.825C128.216 177.881 126.145 180.595 125.937 183.723C125.864 184.418 125.968 185.12 126.241 185.766C126.835 187.027 128.257 187.692 129.613 188.111C130.97 188.529 132.426 188.83 133.509 189.731C134.054 190.241 134.548 190.8 134.985 191.402C136.751 193.546 139.127 195.134 141.815 195.964C141.602 194.536 141.503 192.814 142.672 191.932C143.305 191.454 144.151 191.369 144.948 191.301L148.715 190.984C146.203 188.605 143.435 186.499 140.458 184.704C139.416 184.075 138.282 183.413 137.807 182.311C137.561 181.602 137.459 180.852 137.507 180.104C137.481 177.369 137.243 174.64 136.797 171.94C136.487 170.065 136.076 168.207 135.607 166.364C135.475 165.847 134.696 163.526 133.736 164.069C133.511 164.197 133.299 165.669 133.167 165.974C132.853 166.666 132.471 167.325 132.025 167.943Z" fill="#2F2E41"/>
<path d="M175.409 162.935L176.947 166.058C177.688 167.343 178.026 168.811 177.917 170.282L178.008 179.651C178.079 180.902 177.973 182.158 177.693 183.381C177.597 183.785 177.416 184.164 177.162 184.495C176.901 184.781 176.594 185.023 176.252 185.211C173.341 186.987 169.566 187.996 166.49 186.508C165.786 186.141 165.116 185.714 164.489 185.232C163.263 184.346 162.019 183.442 161.102 182.252C160.142 181.007 159.592 179.516 158.946 178.09C157.788 175.533 156.29 173.136 154.493 170.959C154.195 170.671 154.001 170.296 153.941 169.891C153.922 169.07 154.92 168.666 155.698 168.353C157.028 167.82 158.281 166.79 158.504 165.403C161.331 169.022 164.45 172.846 168.911 174.169C168.981 174.212 169.062 174.237 169.145 174.239C169.228 174.242 169.31 174.222 169.382 174.183C169.455 174.144 169.515 174.086 169.557 174.016C169.598 173.946 169.62 173.866 169.619 173.785C169.872 172.75 169.962 171.685 170.147 170.637C170.487 168.729 171.141 166.887 172.084 165.183C172.612 164.228 174.323 160.73 175.409 162.935Z" fill="#2F2E41"/>
<path opacity="0.1" d="M137.237 171.967C137.28 174.184 136.797 176.381 135.827 178.386C135.575 178.829 135.389 179.306 135.275 179.8C135.107 180.855 135.722 181.877 136.425 182.695C137.812 184.304 139.611 185.526 141.638 186.236" fill="black"/>
<path opacity="0.1" d="M170.64 170.098C170.413 170.693 170.619 171.352 170.794 171.963C171.3 173.737 171.536 175.574 171.495 177.415C171.502 177.447 171.501 177.48 171.492 177.512C171.483 177.544 171.466 177.573 171.442 177.596C171.419 177.62 171.389 177.637 171.357 177.647C171.325 177.657 171.291 177.659 171.257 177.652C170.515 177.697 169.666 177.701 169.162 177.167" fill="black"/>
<path opacity="0.1" d="M296.739 258.817C324.397 258.817 346.818 254.127 346.818 248.34C346.818 242.554 324.397 237.864 296.739 237.864C269.082 237.864 246.661 242.554 246.661 248.34C246.661 254.127 269.082 258.817 296.739 258.817Z" fill="black"/>
<path d="M321.779 154.825L318.202 158.317L321.779 161.809L325.356 154.825H321.779Z" fill="#A0616A"/>
<path d="M322.584 124.543C323.588 124.944 324.065 126.04 324.444 127.033L329.084 139.206L329.987 141.575C330.43 142.737 330.873 143.9 331.248 145.085C331.485 145.834 331.694 146.591 331.875 147.356C332.064 148.01 332.136 148.691 332.089 149.369C331.964 150.115 331.685 150.829 331.269 151.467C329.655 154.212 327.356 156.514 324.586 158.159C324.426 157.153 324.01 156.201 323.377 155.392C322.743 154.583 321.912 153.942 320.959 153.528L323.358 152.239C323.866 152.007 324.322 151.68 324.703 151.278C324.935 150.964 325.1 150.608 325.188 150.23C325.277 149.853 325.286 149.462 325.216 149.081C325.072 148.32 324.833 147.58 324.504 146.876C323.699 144.914 323 142.913 322.411 140.879C322.062 139.676 321.742 138.44 321.052 137.388C320.425 136.433 319.518 135.669 318.948 134.681C318.081 133.175 318.103 131.32 318.486 129.633C318.81 128.208 319.352 126.837 319.808 125.451C320.167 124.361 321.509 124.113 322.584 124.543Z" fill="#D0CDE1"/>
<path d="M300.461 92.0193C298.616 92.6277 296.945 94.0505 296.567 95.9157C296.392 96.7803 296.499 97.6791 296.352 98.5486C296.01 100.565 294.388 102.105 292.893 103.536C291.398 104.966 289.853 106.628 289.744 108.67C289.625 110.905 291.285 112.999 290.998 115.219C290.664 117.799 287.873 119.471 287.183 121.983C286.722 123.66 287.287 125.466 288.216 126.947C289.985 129.769 293.011 131.685 296.233 132.712C299.454 133.739 302.886 133.955 306.275 133.989C310.401 134.032 314.881 133.686 317.982 131.027C319.753 129.494 320.865 127.365 321.095 125.066C321.39 121.986 320.073 118.803 320.981 115.84C321.553 113.975 322.986 112.271 322.772 110.336C322.563 108.443 320.87 107.102 319.709 105.573C318.625 104.146 317.967 102.46 317.322 100.798L315.115 95.1115C314.681 93.9937 314.205 92.818 313.238 92.0843C311.429 90.7108 308.519 90.9807 306.402 91.2639C304.439 91.5268 302.349 91.3969 300.461 92.0193Z" fill="#2F2E41"/>
<path d="M302.168 110.759C302.168 110.759 302.384 117.085 301.736 117.718C301.088 118.35 304.328 122.568 304.328 122.568L310.159 122.357L313.183 120.037L310.591 116.664C310.591 116.664 309.511 111.181 310.375 109.916C311.239 108.651 302.168 110.759 302.168 110.759Z" fill="#A0616A"/>
<path opacity="0.1" d="M302.168 110.759C302.168 110.759 302.384 117.085 301.736 117.718C301.088 118.35 304.328 122.568 304.328 122.568L310.159 122.357L313.183 120.037L310.591 116.664C310.591 116.664 309.511 111.181 310.375 109.916C311.239 108.651 302.168 110.759 302.168 110.759Z" fill="black"/>
<path d="M288.669 159.574L292.341 167.587L295.149 164.213L289.533 157.044L288.669 159.574Z" fill="#A0616A"/>
<path d="M278.842 239.807L277.33 248.031L274.739 251.615L276.25 252.458L278.842 252.037L281.866 250.982L283.162 246.133L285.538 239.807H278.842Z" fill="#A0616A"/>
<path d="M306.488 234.746L305.624 246.555L307.783 248.241L311.239 245.289V236.644L306.488 234.746Z" fill="#A0616A"/>
<path d="M305.732 113.184C310.026 113.184 313.507 109.786 313.507 105.593C313.507 101.401 310.026 98.0023 305.732 98.0023C301.438 98.0023 297.957 101.401 297.957 105.593C297.957 109.786 301.438 113.184 305.732 113.184Z" fill="#A0616A"/>
<path d="M311.732 115.803C311.499 115.694 311.244 115.635 310.986 115.63C310.727 115.625 310.471 115.675 310.233 115.775C309.762 115.979 309.304 116.212 308.862 116.473C307.728 117.049 306.441 117.278 305.171 117.128C305.022 117.117 304.876 117.081 304.74 117.02C304.595 116.932 304.463 116.828 304.344 116.708C303.884 116.343 303.296 116.167 302.705 116.217C302.114 116.266 301.566 116.538 301.176 116.975C300.948 117.253 300.792 117.584 300.542 117.845C299.897 118.518 298.832 118.546 297.887 118.544C295.928 118.491 293.969 118.666 292.053 119.066C290.127 119.472 288.354 120.389 286.93 121.717C286.541 122.074 286.231 122.505 286.019 122.983C285.759 123.639 285.793 124.376 285.559 125.042C285.298 125.783 284.72 126.391 284.486 127.141C284.31 127.705 284.335 128.334 284.04 128.849C285.302 129.916 286.372 131.338 287.634 132.405C288.469 133.111 289.344 133.875 289.658 134.91C289.8 135.547 289.862 136.2 289.845 136.852C290.002 139.971 291.734 142.8 293.672 145.285C294.203 146.022 294.839 146.681 295.56 147.244C296.539 147.895 297.651 148.331 298.82 148.522C301.026 148.962 303.297 148.96 305.549 148.938C307.877 148.915 310.245 148.867 312.458 148.161C313.583 147.854 314.596 147.24 315.377 146.391C316.287 145.3 316.642 143.721 317.884 143.007C318.185 142.872 318.469 142.706 318.733 142.512C318.986 142.244 319.165 141.918 319.253 141.564C319.687 140.239 319.927 138.861 319.964 137.471C319.932 136.637 319.99 135.802 320.137 134.98C320.352 134.255 320.664 133.561 321.067 132.918L323.64 128.362C323.849 127.992 323.795 127.447 323.814 127.025C323.795 126.416 323.603 125.824 323.26 125.315C321.592 122.435 318.97 120.195 315.826 118.961C315.578 118.879 315.342 118.766 315.124 118.625C314.867 118.414 314.649 118.161 314.481 117.877C313.799 116.872 312.964 115.741 311.732 115.803Z" fill="#D0CDE1"/>
<path d="M279.667 140.613C279.16 141.817 278.787 143.071 278.556 144.354C278.308 146.125 278.6 147.929 279.397 149.539C280.784 152.326 283.513 154.215 285.44 156.677C287.23 158.963 288.296 161.704 289.846 164.153C289.575 163.529 289.904 162.808 290.346 162.287C290.788 161.766 291.354 161.334 291.678 160.735C291.899 160.272 292.038 159.776 292.089 159.267C292.32 157.749 292.445 156.1 291.652 154.775C291.056 153.777 290.025 153.114 289.209 152.278C288.393 151.427 287.793 150.4 287.458 149.281C287.122 148.162 287.061 146.982 287.279 145.835C287.436 145.046 287.725 144.288 287.941 143.513C288.209 142.47 288.412 141.413 288.548 140.346L289.521 133.824C289.779 132.09 289.998 130.17 288.992 128.718C288.796 128.414 288.524 128.164 288.203 127.989C287.936 127.87 287.653 127.792 287.363 127.758C286.304 127.589 284.87 127.137 284.353 128.244C283.73 129.581 283.295 131.037 282.773 132.415L279.667 140.613Z" fill="#D0CDE1"/>
<path d="M316.735 144.181C316.735 144.181 303.896 146.606 300.872 146.606H295.473C295.473 146.606 293.529 149.98 293.529 153.354C293.529 156.727 280.786 203.96 280.786 203.96C280.786 203.96 268.691 242.759 282.082 242.97C295.473 243.181 303.896 243.813 304.112 239.385C304.328 234.957 305.624 177.814 305.624 177.814L307.64 207.197C308.182 214.471 307.603 221.783 305.923 228.89C304.956 232.874 305.106 237.242 309.943 238.12C319.231 239.807 330.893 238.331 330.893 235.168C330.893 232.005 324.846 161.788 324.846 161.788C324.846 161.788 321.822 151.456 320.094 150.612C318.367 149.769 316.735 144.181 316.735 144.181Z" fill="#2F2E41"/>
<path d="M276.466 251.193L281.218 249.507L284.458 241.494L287.913 241.072C287.913 241.072 285.97 245.078 284.89 245.711C283.81 246.344 282.082 251.615 282.082 251.615C282.082 251.615 282.946 253.724 278.842 254.567C274.739 255.411 271.715 256.043 271.715 256.043C271.715 256.043 271.283 255.2 273.227 253.091C275.171 250.983 277.44 247.433 277.44 247.433L276.466 251.193Z" fill="#2F2E41"/>
<path d="M305.624 241.494L304.76 247.82C304.76 247.82 307.136 251.193 307.784 251.193C308.432 251.193 311.887 248.241 311.887 248.241C311.887 248.241 311.671 245.078 311.887 244.235C312.103 243.392 312.535 239.385 311.887 239.174C311.239 238.963 311.239 243.874 311.239 243.874L308.432 246.765L305.724 245.181L305.624 241.494Z" fill="#2F2E41"/>
<path d="M306.38 105.593C311.032 105.593 314.803 103.611 314.803 101.165C314.803 98.7197 311.032 96.7372 306.38 96.7372C301.728 96.7372 297.957 98.7197 297.957 101.165C297.957 103.611 301.728 105.593 306.38 105.593Z" fill="#2F2E41"/>
<path d="M0 188.063C0 212.903 15.9617 233.004 35.6874 233.004L0 188.063Z" fill="#3F3D56"/>
<path d="M35.6874 233.004C35.6874 207.885 53.4998 187.558 75.5124 187.558L35.6874 233.004Z" fill="#38D39F"/>
<path d="M12.9302 190.315C12.9302 213.911 23.1087 233.004 35.6874 233.004L12.9302 190.315Z" fill="#38D39F"/>
<path d="M35.6874 233.004C35.6874 200.907 56.2757 174.934 81.7189 174.934L35.6874 233.004Z" fill="#3F3D56"/>
<path d="M28.1797 233.321C28.1797 233.321 33.2407 233.169 34.766 232.108C36.2913 231.048 42.5512 229.782 42.9296 231.482C43.308 233.183 50.5354 239.94 44.8215 239.985C39.1076 240.03 31.5449 239.116 30.0226 238.211C28.5002 237.306 28.1797 233.321 28.1797 233.321Z" fill="#A8A8A8"/>
<path opacity="0.2" d="M44.9235 239.393C39.2096 239.438 31.6469 238.524 30.1246 237.619C28.9652 236.93 28.5032 234.455 28.3486 233.314C28.2416 233.319 28.1797 233.321 28.1797 233.321C28.1797 233.321 28.5002 237.306 30.0226 238.211C31.5449 239.116 39.1076 240.03 44.8215 239.985C46.4709 239.972 47.0406 239.399 47.0093 238.551C46.7802 239.063 46.1511 239.384 44.9235 239.393Z" fill="black"/>
</g>
<defs>
<clipPath id="clip0">
<rect width="412" height="294.128" fill="white"/>
</clipPath>
</defs>
</svg>
