<svg width="345" height="296" viewBox="0 0 345 296" fill="none" xmlns="http://www.w3.org/2000/svg">
<g clip-path="url(#clip0)">
<ellipse cx="176.5" cy="140" rx="168.5" ry="140" fill="#CFF1F8"/>
<path d="M280.232 279.618H70.8135L70.908 256.801C71.1469 199.065 115.99 151.492 172.165 150.51C172.772 150.499 173.38 150.494 173.989 150.494H173.989C186.629 150.484 199.169 152.799 211.016 157.33C250.764 172.542 277.443 211.191 279.218 254.74L280.232 279.618Z" fill="#38D39F"/>
<path d="M345 279.618H0V280.506H345V279.618Z" fill="#2F2E41"/>
<path d="M171.976 177.564L181.204 184.461L190.431 265.496H212.242L204.692 173.254L174.493 161.185L171.976 177.564Z" fill="#2F2E41"/>
<path d="M133.388 151.702C133.388 151.702 130.871 181.013 140.938 181.875C151.004 182.737 189.592 173.254 189.592 173.254L208.048 240.495L235.731 225.84C235.731 225.84 218.953 149.978 208.887 145.668C198.82 141.358 165.265 132.737 165.265 132.737L140.938 137.047L133.388 151.702Z" fill="#2F2E41"/>
<path d="M193.787 263.771C193.787 263.771 188.754 283.599 192.109 285.323C194.127 286.359 196.088 287.511 197.981 288.771V285.323C197.981 285.323 202.176 289.633 202.176 293.082C202.176 296.53 224.825 297.392 224.825 293.082C224.825 288.771 223.986 283.599 219.792 281.013C215.598 278.426 210.564 263.771 210.564 263.771H193.787Z" fill="#2F2E41"/>
<path d="M218.114 228.427L219.792 244.806L225.664 255.151L239.925 238.771L229.02 220.668L218.114 228.427Z" fill="#2F2E41"/>
<path d="M231.536 244.806C231.536 244.806 234.625 233.952 237.694 235.069C240.764 236.185 252.508 247.392 252.508 247.392L260.897 252.564C260.897 252.564 277.674 254.288 272.641 259.461C267.608 264.633 249.153 271.53 240.764 268.082C232.375 264.633 230.697 263.771 230.697 263.771L228.181 265.495L218.114 262.909L219.792 244.806C219.792 244.806 222.309 252.564 231.536 244.806Z" fill="#2F2E41"/>
<path d="M161.91 43.9438C172.565 43.9438 181.204 35.0667 181.204 24.1163C181.204 13.1658 172.565 4.2887 161.91 4.2887C151.254 4.2887 142.615 13.1658 142.615 24.1163C142.615 35.0667 151.254 43.9438 161.91 43.9438Z" fill="#9F616A"/>
<path d="M149.746 35.7542C149.746 35.7542 151.424 53.8576 146.39 53.8576C141.357 53.8576 147.229 76.2714 160.651 76.2714C174.073 76.2714 179.107 49.5473 179.107 49.5473C179.107 49.5473 169.879 46.099 171.557 34.8921C173.234 23.6852 149.746 35.7542 149.746 35.7542Z" fill="#9F616A"/>
<path d="M148.409 52.4767L141.357 55.5818L122.218 63.9029C121.446 64.2384 120.801 64.8212 120.378 65.5644C119.955 66.3077 119.777 67.1715 119.871 68.0271L127.096 134.03C127.096 134.03 119.546 150.409 131.291 151.271L132.968 157.306L146.39 140.927L196.723 139.202L197.562 55.5818L174.532 46.2297C174.532 46.2297 171.4 64.0268 148.409 52.4767Z" fill="#3F3D56"/>
<path d="M124.999 66.3577L121.899 65.4475C121.551 65.3454 121.187 65.3203 120.829 65.3738C120.471 65.4273 120.129 65.5581 119.824 65.7577C119.519 65.9573 119.259 66.2211 119.06 66.5317C118.862 66.8422 118.73 67.1925 118.673 67.5594L110.447 120.588C109.805 124.515 110.419 128.55 112.197 132.088C114.739 137.034 120.018 141.519 130.871 136.185L138.421 80.1508L124.999 66.3577Z" fill="#3F3D56"/>
<path d="M187.915 54.2887L197.981 56.0128L225.664 95.668L228.181 102.565L244.119 97.3921C244.119 97.3921 243.28 105.151 251.669 104.289C251.669 104.289 241.603 132.737 220.631 124.116C199.659 115.496 192.948 89.6335 192.948 89.6335L187.915 54.2887Z" fill="#3F3D56"/>
<path d="M199.659 71.5303L161.909 56.0127L160.232 61.1852L177.848 76.7024L199.659 71.5303Z" fill="#CCCCCC"/>
<path d="M150.293 25.3803C151.006 25.1848 151.11 24.2125 151.134 23.455C151.262 19.3982 153.639 15.2355 157.418 14.0545C158.868 13.6459 160.386 13.56 161.871 13.8027C163.991 14.0928 166.037 14.7944 167.902 15.8702C168.886 16.4389 169.851 17.1237 170.968 17.2974C171.705 17.4121 174.897 18.3659 175.631 18.5001C177.245 18.7953 178.745 20.2793 180.294 19.727C181.776 19.1987 182.104 17.2271 182.14 15.6157C182.221 11.9446 179.51 6.86373 177.121 4.13274C175.308 2.06029 172.579 1.10362 169.911 0.606174C166.794 0.0915432 163.636 -0.105909 160.481 0.0166857C156.212 0.0949415 151.824 0.433616 147.973 2.33218C144.123 4.23074 140.889 8.00934 140.705 12.3938C140.666 13.3071 140.758 14.2242 140.683 15.1352C140.501 17.3574 139.353 19.3646 138.814 21.5249C138.429 23.11 138.371 24.7605 138.645 26.3698C138.919 27.9792 139.517 29.5117 140.403 30.8687C141.832 33.0297 147.546 34.9914 147.463 37.6027C148.496 36.5032 146.06 35.3963 147.093 34.2968C147.556 33.9336 147.884 33.4184 148.021 32.837C148.159 32.2557 148.098 31.6434 147.85 31.1023L146.753 26.7064C146.552 25.9015 146.355 25.0302 146.658 24.26C147.834 21.2746 149.105 25.7063 150.293 25.3803Z" fill="#2F2E41"/>
<path d="M160.232 61.1851L144.293 124.978L206.37 147.392L242.442 116.357L265.091 46.5302L228.181 74.1163L160.232 61.1851Z" fill="#F2F2F2"/>
<path d="M163.275 68.0962L163.061 68.9296L223.46 85.3089L223.674 84.4755L163.275 68.0962Z" fill="#E6E6E6"/>
<path d="M161.597 72.4065L161.383 73.2399L221.782 89.6192L221.996 88.7858L161.597 72.4065Z" fill="#E6E6E6"/>
<path d="M160.758 76.7168L160.544 77.5502L220.943 93.9295L221.157 93.0961L160.758 76.7168Z" fill="#E6E6E6"/>
<path d="M159.919 81.0272L159.705 81.8606L220.104 98.2399L220.318 97.4065L159.919 81.0272Z" fill="#E6E6E6"/>
<path d="M159.081 85.3375L158.867 86.1709L219.266 102.55L219.48 101.717L159.081 85.3375Z" fill="#E6E6E6"/>
<path d="M158.242 89.6478L158.028 90.4812L218.427 106.86L218.641 106.027L158.242 89.6478Z" fill="#E6E6E6"/>
<path d="M157.403 93.9582L157.189 94.7916L217.588 111.171L217.802 110.338L157.403 93.9582Z" fill="#E6E6E6"/>
<path d="M156.564 98.2685L156.35 99.1019L216.749 115.481L216.963 114.648L156.564 98.2685Z" fill="#E6E6E6"/>
<path d="M155.725 102.579L155.511 103.412L215.91 119.792L216.124 118.958L155.725 102.579Z" fill="#E6E6E6"/>
<path d="M134.654 108.111C134.654 108.111 153.521 96.53 161.91 104.289C170.298 112.047 137.582 123.254 137.582 123.254L134.654 108.111Z" fill="#9F616A"/>
<path d="M114.094 113.771L138.421 104.289C138.421 104.289 134.227 120.668 142.615 121.53L130.871 136.185C130.871 136.185 107.383 136.185 114.094 113.771Z" fill="#3F3D56"/>
<path d="M178.111 113.418L210.392 124.598L202.752 141.711L170.471 130.531L178.111 113.418Z" fill="#E6E6E6"/>
<path d="M235.311 77.1335L259.639 58.1677L252.928 81.4439L227.761 100.409L235.311 77.1335Z" fill="#CCCCCC"/>
<path d="M247.641 89.7213L223.313 108.686L223.82 109.373L248.148 90.4083L247.641 89.7213Z" fill="#E6E6E6"/>
<path d="M245.963 99.2041L221.635 118.169L222.142 118.856L246.47 99.8911L245.963 99.2041Z" fill="#E6E6E6"/>
<path d="M249.153 105.151C249.153 105.151 270.124 92.2197 256.702 87.0473C243.28 81.8749 243.28 101.702 243.28 101.702C243.28 101.702 242.442 106.013 249.153 105.151Z" fill="#9F616A"/>
<path opacity="0.1" d="M126.257 76.2715L125.419 109.892L138.421 106.079L127.935 106.444L126.257 76.2715Z" fill="black"/>
<path d="M34.7196 264.414C37.3419 274.376 46.324 280.545 46.324 280.545C46.324 280.545 51.0544 270.564 48.4321 260.602C45.8098 250.64 36.8277 244.471 36.8277 244.471C36.8277 244.471 32.0973 254.452 34.7196 264.414Z" fill="#8985A8"/>
<path d="M38.573 262.273C45.7687 269.471 46.6476 280.537 46.6476 280.537C46.6476 280.537 35.8599 279.932 28.6642 272.733C21.4685 265.535 20.5896 254.469 20.5896 254.469C20.5896 254.469 31.3772 255.075 38.573 262.273Z" fill="#3F3D56"/>
<path d="M283.254 168.243H270.3V181.555H283.254V168.243Z" fill="#F2F2F2"/>
<path d="M231.439 17.3754H218.486V30.6872H231.439V17.3754Z" fill="#F2F2F2"/>
<path d="M68.6546 152.269C72.2316 152.269 75.1314 149.289 75.1314 145.613C75.1314 141.937 72.2316 138.957 68.6546 138.957C65.0775 138.957 62.1777 141.937 62.1777 145.613C62.1777 149.289 65.0775 152.269 68.6546 152.269Z" fill="#F2F2F2"/>
</g>
<defs>
<clipPath id="clip0">
<rect width="345" height="296" fill="white"/>
</clipPath>
</defs>
</svg>
