<svg width="569" height="390" viewBox="0 0 569 390" fill="none" xmlns="http://www.w3.org/2000/svg">
<g clip-path="url(#clip0)">
<ellipse cx="288.5" cy="234.5" rx="280.5" ry="234.5" fill="#CFF1F8"/>
<path d="M68.7595 390L67.7831 389.753C78.6706 335.313 106.032 285.877 144.826 250.55C174.156 223.884 209.04 206.05 246.192 198.726C283.345 191.402 321.544 194.831 357.193 208.688C392.841 222.546 424.767 246.377 449.963 277.937C475.16 309.497 492.798 347.748 501.217 389.088L500.241 389.338C477.194 275.559 388.506 196.094 284.567 196.094C181.99 196.094 91.23 277.643 68.7595 390Z" fill="#3F3D56"/>
<path d="M208.75 69.6138C223.762 69.6138 235.932 55.9307 235.932 39.0518C235.932 22.1728 223.762 8.48975 208.75 8.48975C193.738 8.48975 181.569 22.1728 181.569 39.0518C181.569 55.9307 193.738 69.6138 208.75 69.6138Z" fill="#FF6584"/>
<path d="M91.6458 383.057C92.4936 386.58 95.3972 388.763 95.3972 388.763C95.3972 388.763 96.9264 385.232 96.0787 381.709C95.2309 378.185 92.3273 376.003 92.3273 376.003C92.3273 376.003 90.7981 379.534 91.6458 383.057Z" fill="#3F3D56"/>
<path d="M92.8915 382.3C95.2176 384.846 95.5018 388.76 95.5018 388.76C95.5018 388.76 92.0145 388.546 89.6883 386C87.3622 383.454 87.078 379.54 87.078 379.54C87.078 379.54 90.5653 379.754 92.8915 382.3Z" fill="#38D39F"/>
<path d="M156.203 383.057C157.05 386.58 159.954 388.763 159.954 388.763C159.954 388.763 161.483 385.232 160.635 381.709C159.788 378.185 156.884 376.003 156.884 376.003C156.884 376.003 155.355 379.534 156.203 383.057Z" fill="#3F3D56"/>
<path d="M157.448 382.3C159.774 384.846 160.059 388.76 160.059 388.76C160.059 388.76 156.571 388.546 154.245 386C151.919 383.454 151.635 379.54 151.635 379.54C151.635 379.54 155.122 379.754 157.448 382.3Z" fill="#38D39F"/>
<path d="M169.004 102.401L158.783 93.2066L216.02 35.7463H361.157V86.3116L267.124 157.563L169.004 102.401Z" fill="#3F3D56"/>
<path d="M387.619 67.9783V36.8942H368.349V44.5067L361.157 35.7463L314.141 93.2066L295.743 106.997L267.217 341.333L310.238 389.703H410.217V95.5052L387.619 67.9783Z" fill="#CCCCCC"/>
<path d="M314.141 93.207H158.783V389.703H314.141V93.207Z" fill="#F2F2F2"/>
<path d="M247.705 317.303H219.086V389.704H247.705V317.303Z" fill="#CCCCCC"/>
<path d="M188.423 337.989V326.497H176.158V337.989H187.401H188.423Z" fill="#3F3D56"/>
<path d="M187.401 347.182H176.158V358.675H188.423V347.182H187.401Z" fill="#3F3D56"/>
<path d="M208.865 326.497H196.6V337.989H208.865V326.497Z" fill="#3F3D56"/>
<path d="M208.865 347.183H196.6V358.675H208.865V347.183Z" fill="#3F3D56"/>
<path d="M272.235 337.989V326.497H259.97V337.989H271.213H272.235Z" fill="#3F3D56"/>
<path d="M271.213 347.182H259.97V358.675H272.235V347.182H271.213Z" fill="#3F3D56"/>
<path d="M292.677 326.497H280.412V337.989H292.677V326.497Z" fill="#3F3D56"/>
<path d="M292.677 347.183H280.412V358.675H292.677V347.183Z" fill="#3F3D56"/>
<path d="M358.091 108.147V96.655H345.825V108.147H357.069H358.091Z" fill="#3F3D56"/>
<path d="M357.069 117.341H345.825V128.832H358.091V117.341H357.069Z" fill="#3F3D56"/>
<path d="M378.533 96.6545H366.267V108.147H378.533V96.6545Z" fill="#3F3D56"/>
<path d="M378.533 117.341H366.267V128.833H378.533V117.341Z" fill="#3F3D56"/>
<path d="M358.091 172.502V161.01H345.825V172.502H357.069H358.091Z" fill="#3F3D56"/>
<path d="M357.069 181.696H345.825V193.188H358.091V181.696H357.069Z" fill="#3F3D56"/>
<path d="M378.533 161.01H366.267V172.503H378.533V161.01Z" fill="#3F3D56"/>
<path d="M378.533 181.696H366.267V193.188H378.533V181.696Z" fill="#3F3D56"/>
<path d="M358.091 236.858V225.366H345.825V236.858H357.069H358.091Z" fill="#3F3D56"/>
<path d="M357.069 246.052H345.825V257.544H358.091V246.052H357.069Z" fill="#3F3D56"/>
<path d="M378.533 225.366H366.267V236.858H378.533V225.366Z" fill="#3F3D56"/>
<path d="M378.533 246.052H366.267V257.544H378.533V246.052Z" fill="#3F3D56"/>
<path d="M358.091 301.214V289.722H345.825V301.214H357.069H358.091Z" fill="#3F3D56"/>
<path d="M357.069 310.408H345.825V321.9H358.091V310.408H357.069Z" fill="#3F3D56"/>
<path d="M378.533 289.722H366.267V301.214H378.533V289.722Z" fill="#3F3D56"/>
<path d="M378.533 310.408H366.267V321.9H378.533V310.408Z" fill="#3F3D56"/>
<path d="M294.721 108.147H176.158V135.728H294.721V108.147Z" fill="#3F3D56"/>
<path d="M294.721 163.309H176.158V190.89H294.721V163.309Z" fill="#3F3D56"/>
<path d="M294.721 218.471H176.158V246.052H294.721V218.471Z" fill="#3F3D56"/>
<path d="M294.721 273.633H176.158V301.214H294.721V273.633Z" fill="#3F3D56"/>
<path d="M569 388.547H0V389.672H569V388.547Z" fill="#3F3D56"/>
<path d="M98.2262 258.616H95.2862V389.188H98.2262V258.616Z" fill="#3F3D56"/>
<path d="M125.359 275.256C125.546 320.914 96.9765 358.075 96.9765 358.075C96.9765 358.075 68.1036 321.211 67.9165 275.554C67.7293 229.896 96.2987 192.734 96.2987 192.734C96.2987 192.734 125.172 229.598 125.359 275.256Z" fill="#38D39F"/>
<path opacity="0.1" d="M125.359 275.256C125.546 320.914 96.9765 358.075 96.9765 358.075C96.9765 358.075 68.1036 321.211 67.9165 275.554C67.7293 229.896 96.2987 192.734 96.2987 192.734C96.2987 192.734 125.172 229.598 125.359 275.256Z" fill="black"/>
<path d="M60.0065 258.616H57.0666V389.188H60.0065V258.616Z" fill="#3F3D56"/>
<path d="M87.1391 275.256C87.3263 320.914 58.7569 358.075 58.7569 358.075C58.7569 358.075 29.884 321.211 29.6969 275.554C29.5097 229.896 58.0791 192.734 58.0791 192.734C58.0791 192.734 86.952 229.598 87.1391 275.256Z" fill="#38D39F"/>
<path d="M473.193 93.0223C450.034 93.1424 431.184 93.5271 431.184 93.5271C431.184 93.5271 453.591 60.156 473.109 72.5198C492.627 84.8835 515.049 93.0924 515.049 93.0924C515.049 93.0924 496.352 92.9023 473.193 93.0223Z" fill="#F2F2F2"/>
<path d="M87.354 157.168C64.1953 157.288 45.345 157.673 45.345 157.673C45.345 157.673 67.7515 124.302 87.27 136.665C106.788 149.029 129.21 157.238 129.21 157.238C129.21 157.238 110.513 157.048 87.354 157.168Z" fill="#F2F2F2"/>
<path d="M171.428 23.2501C148.269 23.3701 129.419 23.7548 129.419 23.7548C129.419 23.7548 151.825 -9.61617 171.344 2.74755C190.862 15.1113 213.284 23.3202 213.284 23.3202C213.284 23.3202 194.587 23.1301 171.428 23.2501Z" fill="#F2F2F2"/>
<path d="M520.912 258.616H517.972V389.188H520.912V258.616Z" fill="#3F3D56"/>
<path d="M548.044 275.256C548.231 320.914 519.662 358.075 519.662 358.075C519.662 358.075 490.789 321.211 490.602 275.554C490.415 229.896 518.984 192.734 518.984 192.734C518.984 192.734 547.857 229.598 548.044 275.256Z" fill="#38D39F"/>
<path d="M412.696 308.14H442.367V300.087H458.737V308.14H489.43V343.801H458.737V388.666H442.367V343.801H412.696L397.349 324.245L412.696 308.14Z" fill="#3F3D56"/>
</g>
<defs>
<clipPath id="clip0">
<rect width="569" height="390" fill="white"/>
</clipPath>
</defs>
</svg>
