<svg width="30" height="30" viewBox="0 0 30 30" fill="none" xmlns="http://www.w3.org/2000/svg">
<path fill-rule="evenodd" clip-rule="evenodd" d="M15 30C23.2843 30 30 23.2843 30 15C30 6.71573 23.2843 0 15 0C6.71573 0 0 6.71573 0 15C0 23.2843 6.71573 30 15 30ZM21.2396 24V21.36H13.3196L17.8076 17.088C18.8956 16.064 19.6316 15.152 20.0156 14.352C20.3996 13.552 20.5916 12.696 20.5916 11.784C20.5916 10.296 20.0476 9.12 18.9596 8.256C17.8716 7.392 16.4156 6.96 14.5916 6.96C13.2156 6.96 11.9676 7.208 10.8476 7.704C9.74362 8.184 8.86362 8.864 8.20763 9.744L10.3916 11.424C11.3036 10.256 12.6156 9.672 14.3276 9.672C15.3516 9.672 16.1276 9.88 16.6556 10.296C17.1836 10.712 17.4476 11.312 17.4476 12.096C17.4476 12.624 17.3116 13.16 17.0396 13.704C16.7836 14.232 16.2796 14.856 15.5276 15.576L8.85563 21.912V24H21.2396Z" fill="#FF6584"/>
</svg>
