<svg width="30" height="30" viewBox="0 0 30 30" fill="none" xmlns="http://www.w3.org/2000/svg">
<path fill-rule="evenodd" clip-rule="evenodd" d="M15 30C23.2843 30 30 23.2843 30 15C30 6.71573 23.2843 0 15 0C6.71573 0 0 6.71573 0 15C0 23.2843 6.71573 30 15 30ZM19.7756 15.72C18.9596 14.856 17.7756 14.328 16.2236 14.136L20.3036 9.288V7.2H8.85563V9.816H16.4876L12.6716 14.352V16.488H14.2076C15.4396 16.488 16.3516 16.712 16.9436 17.16C17.5516 17.592 17.8556 18.2 17.8556 18.984C17.8556 19.768 17.5356 20.392 16.8956 20.856C16.2716 21.304 15.4076 21.528 14.3036 21.528C13.3756 21.528 12.4716 21.384 11.5916 21.096C10.7276 20.792 9.99162 20.384 9.38363 19.872L8.03963 22.296C8.82362 22.904 9.76762 23.384 10.8716 23.736C11.9916 24.072 13.1516 24.24 14.3516 24.24C15.7916 24.24 17.0076 24.008 17.9996 23.544C19.0076 23.064 19.7596 22.424 20.2556 21.624C20.7516 20.824 20.9996 19.936 20.9996 18.96C20.9996 17.664 20.5916 16.584 19.7756 15.72Z" fill="#FF6584"/>
</svg>
