<svg width="124" height="78" viewBox="0 0 124 78" fill="none" xmlns="http://www.w3.org/2000/svg">
<g clip-path="url(#clip0)">
<ellipse cx="66.0615" cy="73.1393" rx="53.0615" ry="6.13934" fill="#38D389"/>
<path d="M38.2541 14.9117L36.0001 13.0347L48.623 1.30493H80.6309V11.6272L59.8934 26.1724L38.2541 14.9117Z" fill="#3F3D56"/>
<path d="M86.4668 7.88481V1.53934H82.2171V3.09347L80.631 1.30493L70.2621 13.0347L66.205 15.8501L59.9138 63.6862L69.4014 73.5604H91.4507V13.5039L86.4668 7.88481Z" fill="#CCCCCC"/>
<path d="M70.2622 13.0349H36V73.5606H70.2622V13.0349Z" fill="#F2F2F2"/>
<path d="M55.6105 58.781H49.2991V73.5606H55.6105V58.781Z" fill="#CCCCCC"/>
<path d="M42.5368 63.0036V60.6577H39.8321V63.0036H42.3116H42.5368Z" fill="#3F3D56"/>
<path d="M42.3116 64.8804H39.8321V67.2266H42.5368V64.8804H42.3116Z" fill="#3F3D56"/>
<path d="M47.045 60.6577H44.3401V63.0036H47.045V60.6577Z" fill="#3F3D56"/>
<path d="M47.045 64.8806H44.3401V67.2265H47.045V64.8806Z" fill="#3F3D56"/>
<path d="M61.0202 63.0036V60.6577H58.3154V63.0036H60.795H61.0202Z" fill="#3F3D56"/>
<path d="M60.795 64.8804H58.3154V67.2266H61.0202V64.8804H60.795Z" fill="#3F3D56"/>
<path d="M65.5285 60.6577H62.8236V63.0036H65.5285V60.6577Z" fill="#3F3D56"/>
<path d="M65.5285 64.8806H62.8236V67.2265H65.5285V64.8806Z" fill="#3F3D56"/>
<path d="M79.9545 16.0846V13.7388H77.2498V16.0846H79.7293H79.9545Z" fill="#3F3D56"/>
<path d="M79.7293 17.9614H77.2498V20.3073H79.9545V17.9614H79.7293Z" fill="#3F3D56"/>
<path d="M84.4629 13.7388H81.7579V16.0847H84.4629V13.7388Z" fill="#3F3D56"/>
<path d="M84.4629 17.9614H81.7579V20.3074H84.4629V17.9614Z" fill="#3F3D56"/>
<path d="M79.9545 29.2221V26.876H77.2498V29.2221H79.7293H79.9545Z" fill="#3F3D56"/>
<path d="M79.7293 31.0989H77.2498V33.4447H79.9545V31.0989H79.7293Z" fill="#3F3D56"/>
<path d="M84.4629 26.876H81.7579V29.222H84.4629V26.876Z" fill="#3F3D56"/>
<path d="M84.4629 31.0986H81.7579V33.4446H84.4629V31.0986Z" fill="#3F3D56"/>
<path d="M79.9545 42.3593V40.0132H77.2498V42.3593H79.7293H79.9545Z" fill="#3F3D56"/>
<path d="M79.7293 44.2361H77.2498V46.5819H79.9545V44.2361H79.7293Z" fill="#3F3D56"/>
<path d="M84.4629 40.0132H81.7579V42.3591H84.4629V40.0132Z" fill="#3F3D56"/>
<path d="M84.4629 44.2361H81.7579V46.5821H84.4629V44.2361Z" fill="#3F3D56"/>
<path d="M79.9545 55.4967V53.1506H77.2498V55.4967H79.7293H79.9545Z" fill="#3F3D56"/>
<path d="M79.7293 57.3735H77.2498V59.7194H79.9545V57.3735H79.7293Z" fill="#3F3D56"/>
<path d="M84.4629 53.1509H81.7579V55.4968H84.4629V53.1509Z" fill="#3F3D56"/>
<path d="M84.4629 57.3735H81.7579V59.7194H84.4629V57.3735Z" fill="#3F3D56"/>
<path d="M65.9794 16.0847H39.832V21.715H65.9794V16.0847Z" fill="#3F3D56"/>
<path d="M65.9794 27.3452H39.832V32.9755H65.9794V27.3452Z" fill="#3F3D56"/>
<path d="M65.9794 38.606H39.832V44.2361H65.9794V38.606Z" fill="#3F3D56"/>
<path d="M65.9794 49.8665H39.832V55.4968H65.9794V49.8665Z" fill="#3F3D56"/>
<path d="M94.966 46.4487H94.3123V73.3262H94.966V46.4487Z" fill="#3F3D56"/>
<path d="M101 49.8741C101.041 59.2725 94.6881 66.9221 94.6881 66.9221C94.6881 66.9221 88.2673 59.3338 88.2257 49.9354C88.184 40.537 94.5374 32.8875 94.5374 32.8875C94.5374 32.8875 100.958 40.4757 101 49.8741Z" fill="#38D39F"/>
<path opacity="0.4" d="M20.1656 14.9154C24.1231 14.9154 27.3313 11.5765 27.3313 7.4577C27.3313 3.33893 24.1231 0 20.1656 0C16.2082 0 13 3.33893 13 7.4577C13 11.5765 16.2082 14.9154 20.1656 14.9154Z" fill="#FF6584"/>
</g>
<defs>
<clipPath id="clip0">
<rect width="124" height="78" fill="white"/>
</clipPath>
</defs>
</svg>
