<svg width="124" height="78" viewBox="0 0 124 78" fill="none" xmlns="http://www.w3.org/2000/svg">
<g clip-path="url(#clip0)">
<ellipse cx="56.6762" cy="71.8852" rx="53.0615" ry="6.13934" fill="#38D389"/>
<path d="M12.3415 68.146C13.1473 71.2261 15.907 73.1337 15.907 73.1337C15.907 73.1337 17.3605 70.0474 16.5548 66.9673C15.749 63.8871 12.9893 61.9795 12.9893 61.9795C12.9893 61.9795 11.5358 65.0658 12.3415 68.146Z" fill="#3F3D56"/>
<path d="M13.5255 67.4837C15.7364 69.7095 16.0065 73.131 16.0065 73.131C16.0065 73.131 12.6919 72.9438 10.481 70.7181C8.27007 68.4923 8 65.0708 8 65.0708C8 65.0708 11.3146 65.258 13.5255 67.4837Z" fill="#38D39F"/>
<path d="M17.8146 44.9929L15.8468 41.6013L34.2135 25.3206H81.4427V30.0688L64.3878 49.0634L44.7088 53.1333L17.8146 44.9929Z" fill="#3F3D56"/>
<path d="M89.5726 34.8744V24.2607H83.3891V27.6076L81.4428 25.3203L65.6997 41.6011L63.0756 44.3144L59.796 57.8819L65.6997 72.8056H95.8735V42.2794L89.5726 34.8744Z" fill="#CCCCCC"/>
<path d="M65.6996 41.6011H15.8468V72.8059H65.6996V41.6011Z" fill="#F2F2F2"/>
<path d="M58.812 51.4373H48.3167V60.9343H58.812V51.4373Z" fill="#3F3D56"/>
<path d="M44.053 51.0979H34.8696V72.8055H44.053V51.0979Z" fill="#CCCCCC"/>
<path d="M24.3743 54.4899V51.0984H20.4387V54.4899H24.0461H24.3743Z" fill="#3F3D56"/>
<path d="M24.0461 57.2031H20.4387V60.5951H24.3743V57.2031H24.0461Z" fill="#3F3D56"/>
<path d="M30.9338 51.0979H26.998V54.4897H30.9338V51.0979Z" fill="#3F3D56"/>
<path d="M30.9338 57.2031H26.998V60.5948H30.9338V57.2031Z" fill="#3F3D56"/>
<path d="M79.8026 54.8292V51.437H75.8667V54.8292H79.4744H79.8026Z" fill="#3F3D56"/>
<path d="M79.4744 57.5425H75.8667V60.9341H79.8026V57.5425H79.4744Z" fill="#3F3D56"/>
<path d="M86.3623 51.4373H82.4265V54.8291H86.3623V51.4373Z" fill="#3F3D56"/>
<path d="M86.3623 57.5425H82.4265V60.9343H86.3623V57.5425Z" fill="#3F3D56"/>
<path d="M106.22 33.6072H105.269V72.4669H106.22V33.6072Z" fill="#3F3D56"/>
<path d="M115 38.5595C115.06 52.1478 105.816 63.2077 105.816 63.2077C105.816 63.2077 96.4735 52.2364 96.4129 38.6481C96.3523 25.0598 105.597 14 105.597 14C105.597 14 114.939 24.9712 115 38.5595Z" fill="#38D39F"/>
<path opacity="0.4" d="M19.1656 24.9154C23.1231 24.9154 26.3313 21.5765 26.3313 17.4577C26.3313 13.3389 23.1231 10 19.1656 10C15.2082 10 12 13.3389 12 17.4577C12 21.5765 15.2082 24.9154 19.1656 24.9154Z" fill="#FF6584"/>
</g>
<defs>
<clipPath id="clip0">
<rect width="124" height="78" fill="white"/>
</clipPath>
</defs>
</svg>
