<svg width="124" height="78" viewBox="0 0 124 78" fill="none" xmlns="http://www.w3.org/2000/svg">
<ellipse cx="61.5" cy="72" rx="61.5" ry="6" fill="#38D389"/>
<path d="M12.966 43.4487H12.3123V70.3262H12.966V43.4487Z" fill="#3F3D56"/>
<path d="M18.9998 46.8741C19.0414 56.2725 12.6881 63.9221 12.6881 63.9221C12.6881 63.9221 6.26729 56.3338 6.22567 46.9354C6.18405 37.537 12.5374 29.8875 12.5374 29.8875C12.5374 29.8875 18.9581 37.4757 18.9998 46.8741Z" fill="#33B187"/>
<path d="M16.2541 33.9117L14.0001 32.0347L26.623 20.3049H58.6309V30.6272L37.8934 45.1724L16.2541 33.9117Z" fill="#3F3D56"/>
<path d="M64.101 28.4621V24.159H59.9236V25.2129L58.3645 24L48.1721 31.9546L44.1841 33.8638L38 66.3038L47.3261 73H69V32.2727L64.101 28.4621Z" fill="#CCCCCC"/>
<path d="M48 32H14V73H48V32Z" fill="#F2F2F2"/>
<path d="M33.6105 57.781H27.2991V72.5606H33.6105V57.781Z" fill="#CCCCCC"/>
<path d="M20.5368 62.0036V59.6577H17.832V62.0036H20.3115H20.5368Z" fill="#3F3D56"/>
<path d="M20.3115 63.8804H17.832V66.2266H20.5368V63.8804H20.3115Z" fill="#3F3D56"/>
<path d="M25.0449 59.6577H22.3401V62.0036H25.0449V59.6577Z" fill="#3F3D56"/>
<path d="M25.0449 63.8806H22.3401V66.2265H25.0449V63.8806Z" fill="#3F3D56"/>
<path d="M39.0202 62.0036V59.6577H36.3154V62.0036H38.795H39.0202Z" fill="#3F3D56"/>
<path d="M38.795 63.8804H36.3154V66.2266H39.0202V63.8804H38.795Z" fill="#3F3D56"/>
<path d="M43.5285 59.6577H40.8236V62.0036H43.5285V59.6577Z" fill="#3F3D56"/>
<path d="M43.5285 63.8806H40.8236V66.2265H43.5285V63.8806Z" fill="#3F3D56"/>
<path d="M62.4629 12.7388H59.7579V15.0847H62.4629V12.7388Z" fill="#3F3D56"/>
<path d="M62.4629 16.9614H59.7579V19.3074H62.4629V16.9614Z" fill="#3F3D56"/>
<path d="M62.4629 25.876H59.7579V28.222H62.4629V25.876Z" fill="#3F3D56"/>
<path d="M62.4629 30.0986H59.7579V32.4446H62.4629V30.0986Z" fill="#3F3D56"/>
<path d="M57.9545 41.3593V39.0132H55.2498V41.3593H57.7293H57.9545Z" fill="#3F3D56"/>
<path d="M57.7293 43.2361H55.2498V45.5819H57.9545V43.2361H57.7293Z" fill="#3F3D56"/>
<path d="M62.4629 39.0132H59.7579V41.3591H62.4629V39.0132Z" fill="#3F3D56"/>
<path d="M62.4629 43.2361H59.7579V45.5821H62.4629V43.2361Z" fill="#3F3D56"/>
<path d="M57.9545 54.4967V52.1506H55.2498V54.4967H57.7293H57.9545Z" fill="#3F3D56"/>
<path d="M57.7293 56.3735H55.2498V58.7194H57.9545V56.3735H57.7293Z" fill="#3F3D56"/>
<path d="M62.4629 52.1509H59.7579V54.4968H62.4629V52.1509Z" fill="#3F3D56"/>
<path d="M62.4629 56.3735H59.7579V58.7194H62.4629V56.3735Z" fill="#3F3D56"/>
<path d="M43.9794 37.606H17.8319V43.2361H43.9794V37.606Z" fill="#3F3D56"/>
<path d="M43.9794 48.8665H17.8319V54.4968H43.9794V48.8665Z" fill="#3F3D56"/>
<path d="M60.2541 14.9117L58.0001 13.0347L70.623 1.30493H102.631V11.6272L81.8934 26.1724L60.2541 14.9117Z" fill="#3F3D56"/>
<path d="M108.467 7.88481V1.53934H104.217V3.09347L102.631 1.30493L92.2621 13.0347L88.205 15.8501L81.9138 63.6862L91.4014 73.5604H113.451V13.5039L108.467 7.88481Z" fill="#CCCCCC"/>
<path d="M92.2622 13.0349H58V73.5606H92.2622V13.0349Z" fill="#F2F2F2"/>
<path d="M77.6105 58.781H71.2991V73.5606H77.6105V58.781Z" fill="#CCCCCC"/>
<path d="M64.5368 63.0036V60.6577H61.832V63.0036H64.3115H64.5368Z" fill="#3F3D56"/>
<path d="M64.3115 64.8804H61.832V67.2266H64.5368V64.8804H64.3115Z" fill="#3F3D56"/>
<path d="M69.0449 60.6577H66.3401V63.0036H69.0449V60.6577Z" fill="#3F3D56"/>
<path d="M69.0449 64.8806H66.3401V67.2265H69.0449V64.8806Z" fill="#3F3D56"/>
<path d="M83.0202 63.0036V60.6577H80.3154V63.0036H82.795H83.0202Z" fill="#3F3D56"/>
<path d="M82.795 64.8804H80.3154V67.2266H83.0202V64.8804H82.795Z" fill="#3F3D56"/>
<path d="M87.5285 60.6577H84.8236V63.0036H87.5285V60.6577Z" fill="#3F3D56"/>
<path d="M87.5285 64.8806H84.8236V67.2265H87.5285V64.8806Z" fill="#3F3D56"/>
<path d="M101.955 16.0846V13.7388H99.2498V16.0846H101.729H101.955Z" fill="#3F3D56"/>
<path d="M101.729 17.9614H99.2498V20.3073H101.955V17.9614H101.729Z" fill="#3F3D56"/>
<path d="M106.463 13.7388H103.758V16.0847H106.463V13.7388Z" fill="#3F3D56"/>
<path d="M106.463 17.9614H103.758V20.3074H106.463V17.9614Z" fill="#3F3D56"/>
<path d="M101.955 29.2221V26.876H99.2498V29.2221H101.729H101.955Z" fill="#3F3D56"/>
<path d="M101.729 31.0989H99.2498V33.4447H101.955V31.0989H101.729Z" fill="#3F3D56"/>
<path d="M106.463 26.876H103.758V29.222H106.463V26.876Z" fill="#3F3D56"/>
<path d="M106.463 31.0986H103.758V33.4446H106.463V31.0986Z" fill="#3F3D56"/>
<path d="M101.955 42.3593V40.0132H99.2498V42.3593H101.729H101.955Z" fill="#3F3D56"/>
<path d="M101.729 44.2361H99.2498V46.5819H101.955V44.2361H101.729Z" fill="#3F3D56"/>
<path d="M106.463 40.0132H103.758V42.3591H106.463V40.0132Z" fill="#3F3D56"/>
<path d="M106.463 44.2361H103.758V46.5821H106.463V44.2361Z" fill="#3F3D56"/>
<path d="M101.955 55.4967V53.1506H99.2498V55.4967H101.729H101.955Z" fill="#3F3D56"/>
<path d="M101.729 57.3735H99.2498V59.7194H101.955V57.3735H101.729Z" fill="#3F3D56"/>
<path d="M106.463 53.1509H103.758V55.4968H106.463V53.1509Z" fill="#3F3D56"/>
<path d="M106.463 57.3735H103.758V59.7194H106.463V57.3735Z" fill="#3F3D56"/>
<path d="M87.9794 16.0847H61.8319V21.715H87.9794V16.0847Z" fill="#3F3D56"/>
<path d="M87.9794 27.3452H61.8319V32.9755H87.9794V27.3452Z" fill="#3F3D56"/>
<path d="M87.9794 38.606H61.8319V44.2361H87.9794V38.606Z" fill="#3F3D56"/>
<path d="M87.9794 49.8665H61.8319V55.4968H87.9794V49.8665Z" fill="#3F3D56"/>
<path d="M117.966 45.4487H117.312V72.3262H117.966V45.4487Z" fill="#3F3D56"/>
<path d="M124 48.8741C124.041 58.2725 117.688 65.9221 117.688 65.9221C117.688 65.9221 111.267 58.3338 111.226 48.9354C111.184 39.537 117.537 31.8875 117.537 31.8875C117.537 31.8875 123.958 39.4757 124 48.8741Z" fill="#38D39F"/>
<path opacity="0.4" d="M10.1656 14.9154C14.1231 14.9154 17.3313 11.5765 17.3313 7.4577C17.3313 3.33893 14.1231 0 10.1656 0C6.20816 0 3 3.33893 3 7.4577C3 11.5765 6.20816 14.9154 10.1656 14.9154Z" fill="#FF6584"/>
</svg>
